<svg xmlns="http://www.w3.org/2000/svg" viewBox="0 0 236.3 276.39"><defs><style>.cls-1{fill:#74818e;}.cls-2{fill:#fda080;}.cls-3{fill:#f4907c;}.cls-4{fill:#d4d2d1;}.cls-5,.cls-7{fill:gray;}.cls-5,.cls-6{opacity:0.4;}.cls-8{fill:#e5e5e5;}.cls-9{fill:#666;}.cls-10{fill:#cbcbcb;}.cls-11{fill:#fff;}.cls-12{fill:#a5b4c2;}.cls-13{fill:#eac9b8;}.cls-14{fill:#c4ccd7;}.cls-15{fill:#fad1b1;}.cls-16{fill:#647889;}.cls-17{fill:#f8fbfc;}.cls-18{fill:#fdf5ea;}.cls-19{fill:#80c1d8;}.cls-20{fill:#f39475;}.cls-21{fill:#e74a5f;}.cls-22{fill:#c9364f;}.cls-23{fill:#393f4b;}.cls-24{fill:#11114e;}.cls-25{fill:#63adc1;}.cls-26{fill:#6f251e;}.cls-27{fill:#e28166;}.cls-28{fill:#f16a44;}.cls-29{fill:#93603d;}.cls-30{fill:#a4704c;}.cls-31{opacity:0.5;}.cls-32{fill:#f9e1df;}</style></defs><title>Services we offer</title><g id="Layer_2" data-name="Layer 2"><g id="OBJECTS"><path class="cls-1" d="M180.05,276.39a4.57,4.57,0,0,1-.29-9.14,46.17,46.17,0,0,0,12.79-3.38,55.17,55.17,0,0,0,24-18.84,4.57,4.57,0,0,1,7.38,5.4c-17.61,24.07-42.5,25.89-43.55,25.95Z"/><path class="cls-1" d="M2.5,193.91a4.57,4.57,0,0,1,9.14-.3A46.71,46.71,0,0,0,15,206.41a55.15,55.15,0,0,0,18.85,24,4.58,4.58,0,1,1-5.41,7.39C4.39,220.13,2.58,195.25,2.51,194.19,2.51,194.1,2.5,194,2.5,193.91Z"/><path class="cls-1" d="M138.76,13.45a4.58,4.58,0,0,1-5.9,7,46.51,46.51,0,0,0-11.77-6.05,55.19,55.19,0,0,0-30.4-2,4.58,4.58,0,1,1-1.88-9c29.2-6.1,48.91,9.21,49.73,9.87Z"/><polygon class="cls-2" points="25.87 190.09 52.23 176.26 62.15 202.38 36.03 211.59 25.87 190.09"/><path class="cls-3" d="M34.35,188.94s8.29-1.7,11.82,0,6.54,12.2,6.54,12.2l17.39,1.24L54.37,172.83l-16.3,7.72Z"/><path class="cls-4" d="M40.11,91.11a26.41,26.41,0,0,0-13.57,34.81L71.28,227.81a26.42,26.42,0,0,0,34.82,13.57l117.36-51.53a21.49,21.49,0,0,0,12.84-19.67v-90c0-35.48-36.42-59.27-68.9-45Z"/><circle class="cls-5" cx="215.64" cy="171.56" r="8.89" transform="translate(-0.72 342.21) rotate(-76.77)"/><circle class="cls-5" cx="180.57" cy="54.42" r="8.89" transform="translate(86.26 217.74) rotate(-76.77)"/><circle class="cls-5" cx="54.43" cy="121.21" r="8.89" transform="translate(-76.07 146.22) rotate(-76.67)"/><g class="cls-6"><path class="cls-7" d="M115.76,177.78l-8.48,8.68L71.69,217.35l-5.57-1.29,5.16,11.75a25.07,25.07,0,0,0,1.64,3.13c4.22-1.14,9.48-2.83,11.76-4.63,4.1-3.24,22.79-29.46,22.79-29.46s5.53-3.43,6.27-5.29,2.12-10,2.69-11.3A2.39,2.39,0,0,0,115.76,177.78Z"/><path class="cls-7" d="M83.54,173c1.91-.19,3.33-2.86,3.33-2.86l3-1.34.38-2.95-4.95-2.09-27.81-8L40.17,152,39.28,155l5.06,11.5,29,5.73S81.63,173.21,83.54,173Z"/></g><path class="cls-5" d="M169,151.14l1.93,18,10.25,16.58,15.62,15.87-64.62,28.26-3.82-31.15-3.68-16.58-10.26-17.58L168,141.19a3.11,3.11,0,0,1,.41,1.16C168.44,142.89,169,151.14,169,151.14Z"/><rect class="cls-8" x="125.65" y="160.6" width="53.67" height="36.65" rx="1.82" transform="translate(-58.45 75.14) rotate(-23.36)"/><rect class="cls-9" x="129" y="162.44" width="42.58" height="22.79" rx="1.48" transform="translate(-56.61 73.85) rotate(-23.36)"/><rect class="cls-10" x="152.25" y="185.38" width="9.77" height="8.61" rx="1.53" transform="translate(-62.34 77.87) rotate(-23.36)"/><path class="cls-11" d="M166.51,140.89,140.84,152l-25.66,11.08a1.35,1.35,0,0,0-.45,2.16l6.24,6.65a1,1,0,0,0,1.11.23l23.14-10,23.14-10a1,1,0,0,0,.59-1l-.57-9.1A1.34,1.34,0,0,0,166.51,140.89Z"/><path class="cls-7" d="M169,151.14l-.56-9a1.36,1.36,0,0,0-1.46-.21L141.27,153l-25.66,11.09a1.35,1.35,0,0,0-.85,1.2l6.21,6.62a1,1,0,0,0,1.11.23l23.14-10,23.14-10A1,1,0,0,0,169,151.14Z"/><path class="cls-12" d="M166.67,151.72l-.17-7.47a1.26,1.26,0,0,0-1.3-.12l-23.38,10.1-23.39,10.1a1.25,1.25,0,0,0-.8,1L123,170.6a.91.91,0,0,0,1,.15L145,161.64l21.08-9.1A.9.9,0,0,0,166.67,151.72Z"/><path class="cls-13" d="M143.92,206.51l-2.08-10s2-6.35,1.81-7.56-2.29-8.8-2.29-8.8-1.45-.15-1.76.62,0,4.49,0,4.49a9.78,9.78,0,0,1-1.38-1.87c-.24-.52-.74-5.73-1-8.23a1.46,1.46,0,0,0-1.46-1.33h0a1.46,1.46,0,0,0-1.45,1.28L134,178l-2.46.5-1.16,2.69-2.6,5.56,1.64,6.27,3.66,4.84.77,8.61Z"/><path class="cls-13" d="M178.91,191.56,172,184s-6.29-2.13-7.18-3-5.79-7-5.79-7,.73-1.26,1.53-1.06,3.64,2.62,3.64,2.62a10.39,10.39,0,0,0-.7-2.21c-.29-.5-4.22-4-6.11-5.61a1.45,1.45,0,0,1-.23-1.95h0a1.47,1.47,0,0,1,1.89-.43l2.6,1.41,1.84-1.71,2.87.65,6,1.15,4.12,5,1.78,5.8,6.53,5.67Z"/><rect class="cls-11" x="66.65" y="159.19" width="44.87" height="32.16" transform="matrix(0.94, -0.34, 0.34, 0.94, -53.64, 40.05)"/><rect class="cls-14" x="66.28" y="159.45" width="43.72" height="29.77" transform="translate(-53.38 39.68) rotate(-19.6)"/><rect class="cls-11" x="64.43" y="156.94" width="44.87" height="32.16" transform="translate(-53.02 39.18) rotate(-19.6)"/><path class="cls-15" d="M67.83,155.8,73.12,158s6-1.27,8-.51a78.26,78.26,0,0,1,8.59,5,7,7,0,0,1,1.6,3A3.87,3.87,0,0,1,88.68,168c-1.38.13-7.75.32-7.75.32a24.14,24.14,0,0,1,1.89,1.78,2,2,0,0,1,.11,1.65c-.22.19-5.12-1.9-6.52-2.35a13.74,13.74,0,0,1-3.89-2.67c-.37-.38-1.67-1.84-1.67-1.84L65,162.52Z"/><path class="cls-15" d="M101.15,198.69l3.67-4.39s6-1.64,7.38-3.23,1-4.11,1.32-4.8-.17-5.14.14-5.46c1.1-1.17,2.64-2.31,3.55-3.31,1.6-1.76.46-2.56-.35-2.23-1.29.52-9.8,6.3-9.8,6.3a23.09,23.09,0,0,0,.86-2.45c.07-.46-.38-1.45-.66-1.52s-3.68,4-4.72,5.08a13.93,13.93,0,0,0-2.23,4.15c-.16.51-.64,2.4-.64,2.4L95.57,194Z"/><rect class="cls-16" x="98.59" y="95.15" width="42.89" height="28.77" rx="3.81" transform="translate(-28.45 43.52) rotate(-18.41)"/><path class="cls-17" d="M141.62,118.53l-33.46,11.14a4.79,4.79,0,0,1-6-3l-6.68-20.06a4.78,4.78,0,0,1,3-6l33.46-11.14a4.77,4.77,0,0,1,6.05,3l6.68,20.06A4.78,4.78,0,0,1,141.62,118.53Zm-41.06-16.65a2.84,2.84,0,0,0-1.79,3.59l6.68,20.06a2.84,2.84,0,0,0,3.58,1.8l32-10.65a2.83,2.83,0,0,0,1.79-3.59L136.12,93a2.83,2.83,0,0,0-3.58-1.79Z"/><path class="cls-4" d="M101.79,115.6a1.19,1.19,0,1,1-1.5-.75A1.19,1.19,0,0,1,101.79,115.6Z"/><polygon class="cls-5" points="71.01 77.53 102.58 122.88 116.81 119.28 112.8 109.75 104.58 107.43 94.92 90.04 144.46 71.97 145.22 64.11 138.7 47.81 71.01 77.53"/><path class="cls-18" d="M115.05,114.21l-6.54-3a.79.79,0,0,0-.94.23l-.06.09a.77.77,0,0,0,.3,1.17l6.61,2.92a.77.77,0,0,0,.63-1.41Z"/><path class="cls-13" d="M101,72a16.84,16.84,0,0,1-3.73,1c-1.8.23-4.09-.76-5.62-.52s-5.33,2.91-5.33,2.91L84.84,79,84,84.81l6.55,2.67s1.68.75,4.42-.71a62.28,62.28,0,0,0,7.66-5.71l3.3-1.72Z"/><path class="cls-13" d="M105.57,105l4.46,1.55s2.34,2.51,2.77,3.2,0,2.76,0,2.76,1.55,1.55,1.46,3-2.42,3.45-5.35,3.54-6,.43-6.73,0-4-7-4-7l-4.66-6.43,9.06-4.41Z"/><path class="cls-19" d="M11.08,197.76s-1.46-15.27,2-20S35.3,140,36.88,138.7s34.81,17,34.81,17-3.73,8.74-4.12,8.91-25-8.78-25-8.78l-4.29,13.76,6.37-2.46,5.72,13s-6.78,4.26-18.29,9.94A99.28,99.28,0,0,1,11.08,197.76Z"/><path class="cls-19" d="M23.89,222.71c-.15.39,16.53,12.66,23,10.45s31.51-8.43,34.92-10.85S104,197.56,104,197.56l-6-7.26L78.22,208.23l-13.68,4.24-6.46-14.71S30.35,206.13,23.89,222.71Z"/><path class="cls-20" d="M130.94,203.29l14.79-2,5.58,20.2,37.8-16.6L176,192,185,181l29.06,23.86s8.51,25.13,8.29,27.9-10.31,23.89-25.61,31-36-2.1-38.78-2.74-19.1-21.39-19.4-22.08S130.94,203.29,130.94,203.29Z"/><path class="cls-21" d="M146.1,62.21c-1.88-10-2.73-32.51-4.61-35.7-2.45-4.18-8.11-10-17.05-13.52,0,0-38.21-3.3-47,2.09s-12,52.71-11.93,54.86S95,109.53,95,109.53l9.34-7.32-18.88-31,42-18.42.75,5.23L98.85,71.52l5.81,10.39,37.51-13A5.93,5.93,0,0,0,146.1,62.21Z"/><polygon class="cls-22" points="99.47 106.01 95.93 106.77 65.78 70.55 94.98 109.53 99.47 106.01"/><path class="cls-22" d="M146.14,64.11a11.18,11.18,0,0,1-4.54,3.57c-2.77,1-35.19,11-35.19,11l-3.83-.46,2.08,3.73,37.51-13A5.94,5.94,0,0,0,146.14,64.11Z"/><path class="cls-22" d="M85.44,71.2l6-44.42s17.29-1.78,22.12,0,12.05,5,12.05,5l1.77,21Z"/><path class="cls-22" d="M80.27,18.27S89.4,29.46,89.6,40.45s3.76,6.42,3.76,6.42L91.45,26.78S86.75,20.3,80.27,18.27Z"/><path class="cls-22" d="M126,36.42s-2-11.8,3.7-17.52a18.19,18.19,0,0,0-9.4,11.44C118.15,38.6,126,36.42,126,36.42Z"/><path class="cls-13" d="M118,28.09c.3-.11-.23,8.05-.23,8.05l-2.68,4.16s-6.22,4.45-7.39,5-8,.64-8,.64-2,1-3,.53-2-3.82-2-3.82-3.76-2-3.63-9.82,10-11.19,10-11.19Z"/><path class="cls-13" d="M93.74,13.62s-2.31-.94-3.63.82.91,5,.91,5Z"/><path class="cls-13" d="M124.44,28.47s1.72.48,1.73,1.92-3.3,5-5.61,4.71S124.44,28.47,124.44,28.47Z"/><path class="cls-23" d="M90,30.38s-1.3-14.09,3.3-20.79,9.63-7.85,9.63-7.85a13,13,0,0,1,10.79-1,22.55,22.55,0,0,1,13.18,13.59c1.93,5.89-.85,14.43-4.11,18.58a43.74,43.74,0,0,1-7.75,7.39s1.86-5.46-.31-5.8c0,0-8.72,6.62-14.55,6.25s-6.94-1.55-6.94-1.55,7.11-1.7,10.08-4.15c0,0-8.3,2.47-12.09,2.39L94,33.9l-1.93.94A7,7,0,0,1,90,30.38Z"/><path class="cls-24" d="M43.58,207.72s.78,3.14-.62,5.35-4.07,2.66-5.84,5.13-5.27,7.35-10.17,7.46-8.58-5-11.44-6.12-10.17,1-12.46-3.62,3.11-12.27-.44-16.21-3-8.67-1-10.93c3.29-3.68,7.63-4,12.65-1.18s7.88.73,10.16,0,6.17-1,7.63-.39,2.45,3.21,2.45,3.21Z"/><path class="cls-25" d="M44.63,167.13l-6.37,2.46-3.91,9.91s6.2-.86,7.63,0a17,17,0,0,1,3,3.79c3.47-1.95,5.36-3.14,5.36-3.14Z"/><path class="cls-25" d="M58.08,197.76s-1.7.51-4.37,1.54c1.16,2.66,2.86,7.16,2.47,9.85-.57,4-5.83,7-5.83,7l14.19-3.73Z"/><path class="cls-15" d="M169.34,238.49s-2.53-6.87,0-10.91c3-4.71,11.25-7.79,16.47-5.78,7.65,2.95,7.11,5.42,7.11,5.42Z"/><path class="cls-26" d="M196.69,227.86s-5.53-6-13.75-4.65-10.05,3-10.05,3l2.14-.06-3.82,2.92s-4.53,7.4-4.4,12.65a16.17,16.17,0,0,0,2.6,8.61s1,5.15,3.4,7.35,8.29,4.55,12.7,4.09a22.42,22.42,0,0,0,8.27-2.79,10.27,10.27,0,0,0,6.55-3.6,10.81,10.81,0,0,0,2.6-7s2.67-3.31,2.81-5.26-1.35-6.89-1.35-6.89S202.51,228.16,196.69,227.86Z"/><path class="cls-27" d="M151.31,221.53l2.3,9.45,6.29,7.51s1.72-10.53,9.91-17.31,22.5-5.07,24.6-5,10.1,9.46,10.1,9.46L200.13,214l-11-9Z"/><path class="cls-27" d="M219.8,239S204.31,258.87,190,262.82c-12.52,3.45-27.73-.51-31.3-1.55,4.7,1.56,23.72,9.16,38,2.51C207.62,258.7,215.87,246.54,219.8,239Z"/><path class="cls-18" d="M111.49,112.52l-7.28-3.34a.87.87,0,0,0-1,.27l-.07.09a.86.86,0,0,0,.34,1.3l7.34,3.25a.86.86,0,0,0,.71-1.57Z"/><rect class="cls-11" x="161.87" y="103.3" width="44.87" height="32.16"/><rect class="cls-14" x="161.87" y="103.3" width="43.72" height="29.77"/><rect class="cls-11" x="160.53" y="100.44" width="44.87" height="32.16"/><rect class="cls-11" x="167.58" y="70.58" width="44.87" height="32.16" transform="translate(-10.99 29.98) rotate(-8.77)"/><rect class="cls-14" x="167.4" y="70.68" width="43.72" height="29.77" transform="translate(-10.83 29.86) rotate(-8.77)"/><rect class="cls-11" x="165.82" y="67.95" width="44.87" height="32.16" transform="translate(-10.61 29.68) rotate(-8.77)"/><path class="cls-28" d="M44.13,125a1.34,1.34,0,0,0,1.85.43l4.65-2.88-1.42-2.29-4.64,2.89A1.35,1.35,0,0,0,44.13,125Z"/><circle class="cls-28" cx="54.93" cy="118.26" r="8.27" transform="translate(-67.53 73.48) rotate(-45)"/><path class="cls-17" d="M47.31,116.89a7.38,7.38,0,0,1,.66-2.25,8,8,0,0,1,1.35-2,7.83,7.83,0,0,1,4.15-2.25l.6-.08c.2,0,.4,0,.6,0a1.51,1.51,0,0,1,.3,0h.3c.2,0,.4,0,.6.05a7.66,7.66,0,0,1,4.25,2,7.57,7.57,0,0,1,1.43,1.86A8.14,8.14,0,0,0,58,111.34a7.87,7.87,0,0,0-4.47-.49,8,8,0,0,0-4,2.07A8.2,8.2,0,0,0,47.31,116.89Z"/><circle class="cls-29" cx="54.93" cy="118.26" r="6.68"/><path class="cls-30" d="M48.52,120.15a6.68,6.68,0,0,0,13-1,6.68,6.68,0,0,0-13,1Z"/><g class="cls-31"><path class="cls-17" d="M59.59,115.31a.11.11,0,1,0-.18.11,5.31,5.31,0,0,1-4.48,8.14,4.76,4.76,0,0,1-.84-.07.11.11,0,1,0,0,.21,5.1,5.1,0,0,0,.87.07,5.51,5.51,0,0,0,4.66-8.46Z"/><path class="cls-17" d="M51.83,114a.1.1,0,0,0,0-.15.1.1,0,0,0-.15,0,5.51,5.51,0,0,0-.86,8.16.11.11,0,0,0,.07,0l.08,0a.12.12,0,0,0,0-.16,5.3,5.3,0,0,1,.84-7.84Z"/><path class="cls-17" d="M54.93,114.83a4.38,4.38,0,0,1,.51,0,.11.11,0,0,0,0-.21,3.19,3.19,0,0,0-.54,0,3.64,3.64,0,0,0-3.63,3.64,4.53,4.53,0,0,0,0,.52.11.11,0,0,0,.11.09h0a.12.12,0,0,0,.09-.12,2.7,2.7,0,0,1,0-.49A3.43,3.43,0,0,1,54.93,114.83Z"/><path class="cls-17" d="M57.59,120.74a.11.11,0,1,0-.15-.15,3.46,3.46,0,0,1-2.51,1.09,3.42,3.42,0,0,1-2.52-1.11.11.11,0,0,0-.16.15,3.69,3.69,0,0,0,2.68,1.17A3.64,3.64,0,0,0,57.59,120.74Z"/><path class="cls-17" d="M56.48,115.2a3.42,3.42,0,0,1,1.88,3.06c0,.09,0,.17,0,.26a.1.1,0,0,0,.09.11h0a.11.11,0,0,0,.11-.1c0-.09,0-.18,0-.27a3.63,3.63,0,0,0-2-3.25.11.11,0,0,0-.14,0A.1.1,0,0,0,56.48,115.2Z"/><path class="cls-17" d="M54.93,121.08a2.8,2.8,0,0,0,2.42-1.37.1.1,0,0,0,0-.14.1.1,0,0,0-.14,0,2.6,2.6,0,0,1-2.24,1.27.09.09,0,0,0-.1.1A.1.1,0,0,0,54.93,121.08Z"/><path class="cls-17" d="M56.78,116.41a.11.11,0,1,0,.15-.15,2.84,2.84,0,0,0-4.44.58.11.11,0,0,0,0,.14l.06,0a.11.11,0,0,0,.09-.06,2.62,2.62,0,0,1,4.1-.53Z"/></g><path class="cls-28" d="M189.15,42.86a1.35,1.35,0,0,0-1.9,0l-3.86,3.87,1.9,1.9,3.86-3.87A1.33,1.33,0,0,0,189.15,42.86Z"/><circle class="cls-28" cx="179.94" cy="52.14" r="8.27" transform="translate(87.71 215.21) rotate(-76.67)"/><path class="cls-17" d="M172.31,50.78a7.56,7.56,0,0,1,2-4.21,7.86,7.86,0,0,1,4.16-2.25l.59-.08c.2,0,.4,0,.6,0h.6l.6,0a7.66,7.66,0,0,1,4.26,2,7.82,7.82,0,0,1,1.43,1.86,8.22,8.22,0,0,0-3.53-2.9,7.83,7.83,0,0,0-8.47,1.58A8.29,8.29,0,0,0,172.31,50.78Z"/><circle class="cls-29" cx="179.94" cy="52.14" r="6.68"/><path class="cls-30" d="M173.53,54a6.68,6.68,0,0,0,13-1,6.68,6.68,0,0,0-13,1Z"/><g class="cls-31"><path class="cls-17" d="M184.6,49.19a.11.11,0,0,0-.15,0,.1.1,0,0,0,0,.15,5.3,5.3,0,0,1-4.48,8.13,5.73,5.73,0,0,1-.84-.06.11.11,0,0,0-.13.09.11.11,0,0,0,.09.12,6.4,6.4,0,0,0,.88.07,5.53,5.53,0,0,0,4.66-8.47Z"/><path class="cls-17" d="M176.83,47.85a.11.11,0,0,0,0-.15.11.11,0,0,0-.15,0,5.51,5.51,0,0,0-.87,8.16.09.09,0,0,0,.08,0,.11.11,0,0,0,.07,0,.11.11,0,0,0,0-.15,5.3,5.3,0,0,1,.83-7.84Z"/><path class="cls-17" d="M179.94,48.72a2.92,2.92,0,0,1,.51,0,.11.11,0,0,0,.12-.09.12.12,0,0,0-.09-.12,3.27,3.27,0,0,0-.54,0,3.64,3.64,0,0,0-3.64,3.63,3.08,3.08,0,0,0,0,.53.11.11,0,0,0,.1.09h0a.1.1,0,0,0,.09-.12,4,4,0,0,1,0-.5A3.43,3.43,0,0,1,179.94,48.72Z"/><path class="cls-17" d="M182.6,54.62a.11.11,0,0,0,0-.15.1.1,0,0,0-.15,0,3.43,3.43,0,0,1-5,0,.1.1,0,0,0-.15,0,.11.11,0,0,0,0,.15,3.63,3.63,0,0,0,5.34,0Z"/><path class="cls-17" d="M181.49,49.09a3.42,3.42,0,0,1,1.87,3,2.44,2.44,0,0,1,0,.27.12.12,0,0,0,.1.11h0a.1.1,0,0,0,.1-.1,2.53,2.53,0,0,0,0-.28,3.63,3.63,0,0,0-2-3.24.11.11,0,0,0-.09.19Z"/><path class="cls-17" d="M179.94,55a2.8,2.8,0,0,0,2.41-1.36.11.11,0,0,0,0-.15.11.11,0,0,0-.15,0,2.59,2.59,0,0,1-2.23,1.26.11.11,0,0,0-.11.11A.1.1,0,0,0,179.94,55Z"/><path class="cls-17" d="M181.78,50.3a.11.11,0,1,0,.15-.15,2.81,2.81,0,0,0-2-.83,2.84,2.84,0,0,0-2.44,1.4.11.11,0,0,0,0,.15h.05a.11.11,0,0,0,.09-.05,2.6,2.6,0,0,1,4.1-.53Z"/></g><path class="cls-28" d="M221.82,179.23a1.33,1.33,0,0,0,.41-1.85l-2.93-4.62L217,174.2l2.94,4.62A1.33,1.33,0,0,0,221.82,179.23Z"/><circle class="cls-28" cx="215.01" cy="167.83" r="8.27" transform="translate(2.12 338.35) rotate(-76.67)"/><path class="cls-17" d="M207.38,166.47a7.84,7.84,0,0,1,.67-2.26,7.61,7.61,0,0,1,1.34-2,7.86,7.86,0,0,1,4.16-2.25l.6-.08a5.85,5.85,0,0,1,.59,0h.6a5.82,5.82,0,0,1,.6.05,7.66,7.66,0,0,1,4.26,2,7.82,7.82,0,0,1,1.43,1.86,8.22,8.22,0,0,0-3.53-2.9,7.83,7.83,0,0,0-8.47,1.58A8.33,8.33,0,0,0,207.38,166.47Z"/><circle class="cls-29" cx="215.01" cy="167.83" r="6.68"/><path class="cls-30" d="M208.6,169.73a6.68,6.68,0,0,0,13-1,6.68,6.68,0,0,0-13,1Z"/><g class="cls-31"><path class="cls-17" d="M219.67,164.88a.11.11,0,0,0-.15,0,.11.11,0,0,0,0,.15,5.3,5.3,0,0,1-4.48,8.13,5.83,5.83,0,0,1-.84-.06.11.11,0,0,0-.13.09.12.12,0,0,0,.09.12,6.4,6.4,0,0,0,.88.07,5.53,5.53,0,0,0,4.66-8.47Z"/><path class="cls-17" d="M211.9,163.53a.1.1,0,0,0,0-.14.11.11,0,0,0-.15,0,5.51,5.51,0,0,0-.87,8.16.1.1,0,0,0,.15,0,.11.11,0,0,0,0-.15,5.26,5.26,0,0,1-1.36-3.55A5.35,5.35,0,0,1,211.9,163.53Z"/><path class="cls-17" d="M215,164.41a2.92,2.92,0,0,1,.51,0,.11.11,0,0,0,0-.21,3.27,3.27,0,0,0-.54,0,3.64,3.64,0,0,0-3.64,3.63,3.08,3.08,0,0,0,0,.53.11.11,0,0,0,.1.09h0a.1.1,0,0,0,.09-.12,4,4,0,0,1,0-.5A3.43,3.43,0,0,1,215,164.41Z"/><path class="cls-17" d="M217.67,170.31a.11.11,0,0,0,0-.15.1.1,0,0,0-.15,0,3.41,3.41,0,0,1-5,0,.11.11,0,0,0-.16.14,3.63,3.63,0,0,0,5.34,0Z"/><path class="cls-17" d="M216.56,164.78a3.42,3.42,0,0,1,1.87,3.05,2.17,2.17,0,0,1,0,.26.12.12,0,0,0,.1.12h0a.1.1,0,0,0,.1-.1,2.53,2.53,0,0,0,0-.28,3.62,3.62,0,0,0-2-3.24.1.1,0,0,0-.14,0A.11.11,0,0,0,216.56,164.78Z"/><path class="cls-17" d="M215,170.65a2.79,2.79,0,0,0,2.41-1.36.1.1,0,0,0,0-.15.11.11,0,0,0-.15,0,2.58,2.58,0,0,1-2.23,1.26.11.11,0,0,0-.11.11A.1.1,0,0,0,215,170.65Z"/><path class="cls-17" d="M216.85,166a.11.11,0,1,0,.15-.15,2.81,2.81,0,0,0-2-.83,2.84,2.84,0,0,0-2.44,1.4.11.11,0,0,0,0,.15h0a.11.11,0,0,0,.09,0,2.6,2.6,0,0,1,4.1-.53Z"/></g><path class="cls-15" d="M47.79,197.76c-.19-.45-1.29-.63-2.37-.7-4.11-7.62-14.52-7.89-14.52-7.89s-.83,3.27,3.6,8.68S38.91,214,38.91,214a19.7,19.7,0,0,0,4.7-3.84c2-2.17,3.91-5.36,3.08-9.57C47.35,199.49,48,198.23,47.79,197.76Z"/><path class="cls-32" d="M148.05,204.82l-1-3.74a2,2,0,0,0-2.16-1.44l-13,1.66a2,2,0,0,0-1.68,2.42l1,4.05a2,2,0,0,0,2.22,1.49l13.06-1.95A2,2,0,0,0,148.05,204.82Z"/><path class="cls-32" d="M171.63,189.93l3,2.43a2,2,0,0,0,2.59-.1l9.56-8.94a2,2,0,0,0-.06-2.95l-3.15-2.71a2,2,0,0,0-2.68.08L171.48,187A2,2,0,0,0,171.63,189.93Z"/></g></g></svg>