<svg xmlns="http://www.w3.org/2000/svg" viewBox="0 0 357.06 360"><defs><style>.cls-1{fill:#426175;}.cls-2{fill:#2c4456;}.cls-3{fill:#f2f2f2;}.cls-4{fill:#cdd6df;}.cls-5{fill:#88dbfd;}.cls-6{fill:#5abfe9;}.cls-7{fill:#fd715c;}</style></defs><title>app</title><g id="Layer_2" data-name="Layer 2"><g id="Layer_1-2" data-name="Layer 1"><path class="cls-1" d="M295.12,328.12H108.63A17.72,17.72,0,0,1,90.91,310.4V17.72A17.72,17.72,0,0,1,108.63,0H295.12a17.72,17.72,0,0,1,17.72,17.72V310.4A17.72,17.72,0,0,1,295.12,328.12Z"/><path class="cls-2" d="M295.12,0H260.17a17.72,17.72,0,0,1,17.72,17.72V310.4a17.72,17.72,0,0,1-17.72,17.72h34.95a17.72,17.72,0,0,0,17.72-17.72V17.72A17.72,17.72,0,0,0,295.12,0Z"/><rect class="cls-3" x="90.91" y="37.51" width="221.93" height="253.67"/><rect class="cls-4" x="277.89" y="37.51" width="34.95" height="253.67"/><path class="cls-5" d="M184.26,228.88H17.62A17.61,17.61,0,0,1,0,211.27V95.35A17.62,17.62,0,0,1,17.62,77.73H184.26a17.62,17.62,0,0,1,17.62,17.62V211.27A17.61,17.61,0,0,1,184.26,228.88Z"/><path class="cls-6" d="M184.26,77.73H163V228.88h21.26a17.61,17.61,0,0,0,17.62-17.61V95.35A17.62,17.62,0,0,0,184.26,77.73Z"/><path class="cls-1" d="M34.05,156.24l26.74-17.49a2.65,2.65,0,0,1,1.52-.4,5.35,5.35,0,0,1,4.88,5.08,3.57,3.57,0,0,1-1.52,2.95l-21.35,14,21.35,14a3.32,3.32,0,0,1,1.52,2.95,5.25,5.25,0,0,1-4.88,5,2.58,2.58,0,0,1-1.52-.41L34.05,164.48a5.1,5.1,0,0,1-2.24-4.07A5.27,5.27,0,0,1,34.05,156.24Z"/><path class="cls-1" d="M123.72,114.15a2.9,2.9,0,0,1-.41,1.62L86,190.2a3.69,3.69,0,0,1-3.36,1.93,3.92,3.92,0,0,1-4-3.76,4.16,4.16,0,0,1,.3-1.53l37.42-74.73a3.1,3.1,0,0,1,3-1.83C121.48,110.28,123.72,111.81,123.72,114.15Z"/><path class="cls-1" d="M168.25,164.48,141.51,182a2.33,2.33,0,0,1-1.43.41,5.19,5.19,0,0,1-4.88-5,3.47,3.47,0,0,1,1.43-2.95l21.45-14-21.45-14a3.75,3.75,0,0,1-1.43-2.95,5.29,5.29,0,0,1,4.88-5.09,2.39,2.39,0,0,1,1.43.41l26.74,17.49a5.28,5.28,0,0,1,2.23,4.17A4.85,4.85,0,0,1,168.25,164.48Z"/><path class="cls-7" d="M282.77,360a9.73,9.73,0,0,1-9.72-9.72v-3.1a3.36,3.36,0,0,0-2.4-3.25,55.49,55.49,0,0,1-11.52-4.72,3.28,3.28,0,0,0-1.56-.39,3.43,3.43,0,0,0-2.41,1L253,342a9.72,9.72,0,0,1-13.74,0L234,336.69A9.71,9.71,0,0,1,234,323l2.15-2.16a3.35,3.35,0,0,0,.61-4A55.8,55.8,0,0,1,232,305.3a3.37,3.37,0,0,0-3.25-2.4h-3.1a9.73,9.73,0,0,1-9.72-9.72v-7.47a9.73,9.73,0,0,1,9.72-9.72H229a3.4,3.4,0,0,0,3.26-2.36,55.56,55.56,0,0,1,4.77-11.17,3.36,3.36,0,0,0-.58-4l-2.5-2.51a9.72,9.72,0,0,1,0-13.75l5.28-5.28a9.73,9.73,0,0,1,13.74,0l2.79,2.79a3.41,3.41,0,0,0,2.4,1,3.28,3.28,0,0,0,1.54-.38,55.94,55.94,0,0,1,10.91-4.39,3.36,3.36,0,0,0,2.41-3.24v-4.08a9.73,9.73,0,0,1,9.72-9.72h7.47a9.73,9.73,0,0,1,9.72,9.72V233a3.38,3.38,0,0,0,2.35,3.23,55.71,55.71,0,0,1,10.58,4.43,3.3,3.3,0,0,0,1.59.41,3.37,3.37,0,0,0,2.4-1l3.13-3.13a9.74,9.74,0,0,1,13.75,0l5.28,5.28a9.74,9.74,0,0,1,0,13.75l-3.13,3.13a3.37,3.37,0,0,0-.59,4,55.71,55.71,0,0,1,4.43,10.58A3.38,3.38,0,0,0,343,276h4.36a9.73,9.73,0,0,1,9.72,9.72v7.47a9.73,9.73,0,0,1-9.72,9.72h-4.08a3.36,3.36,0,0,0-3.24,2.41,55.94,55.94,0,0,1-4.39,10.91,3.36,3.36,0,0,0,.62,3.94L339,323a9.73,9.73,0,0,1,0,13.74L333.76,342A9.74,9.74,0,0,1,320,342l-2.51-2.51a3.35,3.35,0,0,0-4-.58,55.81,55.81,0,0,1-11.17,4.77,3.4,3.4,0,0,0-2.36,3.26v3.36a9.73,9.73,0,0,1-9.72,9.72Zm3.74-93.4a22.85,22.85,0,1,0,22.84,22.84A22.87,22.87,0,0,0,286.51,266.6Z"/></g></g></svg>