<svg xmlns="http://www.w3.org/2000/svg" viewBox="0 0 386.67 360"><defs><style>.cls-1{fill:#426175;}.cls-2{fill:#60d1e0;}.cls-3{fill:#3fb7c7;}.cls-4{fill:#f2f2f2;}.cls-5{fill:#fff;}.cls-6{fill:#f4f4f4;}.cls-7{fill:#e0e0de;}.cls-8{fill:#d6d6d4;}.cls-9{fill:#2c4456;}.cls-10{fill:#33bca5;}.cls-11{fill:#95573a;opacity:0.12;}.cls-12{fill:#fd715c;}.cls-13{fill:#f25341;}</style></defs><title>bug</title><g id="Layer_2" data-name="Layer 2"><g id="Layer_1-2" data-name="Layer 1"><path class="cls-1" d="M40,80H346.67a26.67,26.67,0,0,1,26.66,26.67V313.33a20,20,0,0,1-20,20h-320a20,20,0,0,1-20-20V106.67A26.67,26.67,0,0,1,40,80Z"/><path class="cls-2" d="M338.87,7.8A26.86,26.86,0,0,0,320,0H66.67A26.66,26.66,0,0,0,40,26.65V340H346.67V26.67A26.9,26.9,0,0,0,338.87,7.8Z"/><path class="cls-3" d="M66.66,20H80V33.33H66.66Z"/><path class="cls-3" d="M93.33,20h13.33V33.33H93.33Z"/><path class="cls-3" d="M120,20h13.33V33.33H120Z"/><path class="cls-3" d="M66.67,46.67H233.33V60H66.67Z"/><path class="cls-4" d="M338.87,7.8A26.86,26.86,0,0,0,320,0H66.67A26.66,26.66,0,0,0,40,26.65V340H346.67V26.67A26.9,26.9,0,0,0,338.87,7.8Z"/><path class="cls-5" d="M73.33,20h0A6.67,6.67,0,0,1,80,26.67h0a6.67,6.67,0,0,1-6.67,6.66h0a6.67,6.67,0,0,1-6.67-6.66h0A6.67,6.67,0,0,1,73.33,20Z"/><path class="cls-5" d="M100,20h0a6.66,6.66,0,0,1,6.66,6.67h0A6.66,6.66,0,0,1,100,33.33h0a6.66,6.66,0,0,1-6.67-6.66h0A6.66,6.66,0,0,1,100,20Z"/><path class="cls-5" d="M126.66,20h0a6.66,6.66,0,0,1,6.67,6.67h0a6.66,6.66,0,0,1-6.67,6.66h0A6.66,6.66,0,0,1,120,26.67h0A6.66,6.66,0,0,1,126.66,20Z"/><path class="cls-5" d="M73.33,46.67H226.67a6.66,6.66,0,0,1,6.66,6.66h0A6.66,6.66,0,0,1,226.67,60H73.33a6.66,6.66,0,0,1-6.66-6.67h0A6.66,6.66,0,0,1,73.33,46.67Z"/><path class="cls-6" d="M346.67,86.67,93.33,340H346.67Z"/><path class="cls-7" d="M233.33,326.67a22.73,22.73,0,0,1-16.09,6.66H169.43a22.76,22.76,0,0,1-16.1-6.66A22.74,22.74,0,0,0,137.24,320H0v20a20,20,0,0,0,20,20H366.67a20,20,0,0,0,20-20h0V320H249.43A22.77,22.77,0,0,0,233.33,326.67Z"/><path class="cls-8" d="M360,320v20a20,20,0,0,1-20,20h26.67a20,20,0,0,0,20-20h0V320Z"/><path class="cls-9" d="M152.61,185.46A33.46,33.46,0,0,1,119.19,152v-5.51a6.15,6.15,0,1,1,12.29,0V152a21.16,21.16,0,0,0,21.13,21.13,6.15,6.15,0,0,1,0,12.3Z"/><path class="cls-9" d="M235.66,185.46a6.15,6.15,0,1,1,0-12.3A21.16,21.16,0,0,0,256.79,152v-5.51a6.15,6.15,0,1,1,12.29,0V152A33.46,33.46,0,0,1,235.66,185.46Z"/><path class="cls-9" d="M251.14,267.25A6.14,6.14,0,0,1,245,261.1v-5.51a21.16,21.16,0,0,0-21.14-21.13,6.15,6.15,0,0,1,0-12.29,33.46,33.46,0,0,1,33.43,33.42v5.51A6.15,6.15,0,0,1,251.14,267.25Z"/><path class="cls-9" d="M135.51,267.25a6.15,6.15,0,0,1-6.15-6.15v-5.51a33.46,33.46,0,0,1,33.43-33.42,6.15,6.15,0,0,1,0,12.29,21.16,21.16,0,0,0-21.14,21.13v5.51A6.14,6.14,0,0,1,135.51,267.25Z"/><path class="cls-9" d="M153.16,208.6H118.28a6.15,6.15,0,1,1,0-12.29h34.88a6.15,6.15,0,0,1,0,12.29Z"/><path class="cls-10" d="M176.8,158.35a6.14,6.14,0,0,1-6.15-6.14v-7.52a4.8,4.8,0,0,0-4.8-4.8,17.12,17.12,0,0,1-17.1-17.1V114.9a6.15,6.15,0,1,1,12.29,0v7.89a4.82,4.82,0,0,0,4.81,4.81,17.11,17.11,0,0,1,17.09,17.09v7.52A6.14,6.14,0,0,1,176.8,158.35Z"/><path class="cls-10" d="M211.1,158.35a6.14,6.14,0,0,1-6.15-6.14v-7.52a17.12,17.12,0,0,1,17.1-17.09,4.82,4.82,0,0,0,4.81-4.81V114.9a6.15,6.15,0,1,1,12.29,0v7.89a17.12,17.12,0,0,1-17.1,17.1,4.81,4.81,0,0,0-4.81,4.8v7.52A6.14,6.14,0,0,1,211.1,158.35Z"/><path class="cls-9" d="M268.39,208.6H233.51a6.15,6.15,0,1,1,0-12.29h34.88a6.15,6.15,0,1,1,0,12.29Z"/><circle class="cls-9" cx="193.76" cy="176.6" r="34.45"/><path class="cls-11" d="M193.76,142.14a34.66,34.66,0,0,0-7.33.79,34.45,34.45,0,0,1,0,67.33,34.45,34.45,0,1,0,7.33-68.12Z"/><path class="cls-12" d="M153.26,173.13a89.37,89.37,0,0,0-1.88,18.37c0,34.32,18.87,62.15,42.14,62.15s42.14-27.83,42.14-62.15a90.08,90.08,0,0,0-1.87-18.37Z"/><path class="cls-13" d="M233.79,173.13H219.38a90.08,90.08,0,0,1,1.87,18.37c0,30.7-15.1,56.18-34.93,61.23a29.36,29.36,0,0,0,7.2.92c23.27,0,42.14-27.83,42.14-62.15A90.08,90.08,0,0,0,233.79,173.13Z"/><path class="cls-13" d="M193.76,188.38a6.15,6.15,0,0,0-6.15,6.15V253a28.76,28.76,0,0,0,12.29-.09V194.53A6.14,6.14,0,0,0,193.76,188.38Z"/><circle class="cls-5" cx="180.63" cy="161.81" r="4.85"/><circle class="cls-5" cx="205.67" cy="161.81" r="4.85"/></g></g></svg>