<svg xmlns="http://www.w3.org/2000/svg" viewBox="0 0 360 360"><defs><style>.cls-1{fill:#426175;}.cls-2{fill:#60d1e0;}.cls-3{fill:#3fb7c7;}.cls-4{fill:#f2f2f2;}.cls-5{fill:#fff;}.cls-6{fill:#f4f4f4;}.cls-7{fill:#e0e0de;}.cls-8{fill:#d6d6d4;}.cls-9{fill:#2c4456;}.cls-10{fill:#33bca5;}.cls-11{fill:#fd715c;}.cls-12{fill:#95573a;}.cls-13{fill:#f25341;}.cls-14{opacity:0.05;}.cls-15{opacity:0.08;}</style></defs><title>finger</title><g id="Layer_2" data-name="Layer 2"><g id="Layer_1-2" data-name="Layer 1"><path class="cls-1" d="M37.24,99.31H322.76a24.83,24.83,0,0,1,24.83,24.83V316.55A18.62,18.62,0,0,1,329,335.17H31a18.62,18.62,0,0,1-18.62-18.62V124.14A24.83,24.83,0,0,1,37.24,99.31Z"/><path class="cls-2" d="M315.5,32.09a25,25,0,0,0-17.57-7.26H62.07A24.82,24.82,0,0,0,37.24,49.64V341.38H322.76V49.66A25,25,0,0,0,315.5,32.09Z"/><path class="cls-3" d="M62.07,43.45H74.48V55.86H62.07Z"/><path class="cls-3" d="M86.89,43.45H99.31V55.86H86.89Z"/><path class="cls-3" d="M111.72,43.45h12.41V55.86H111.72Z"/><path class="cls-3" d="M62.07,68.28H217.24V80.69H62.07Z"/><path class="cls-4" d="M315.5,32.09a25,25,0,0,0-17.57-7.26H62.07A24.82,24.82,0,0,0,37.24,49.64V341.38H322.76V49.66A25,25,0,0,0,315.5,32.09Z"/><path class="cls-5" d="M68.27,43.45h0a6.21,6.21,0,0,1,6.21,6.21h0a6.21,6.21,0,0,1-6.21,6.2h0a6.2,6.2,0,0,1-6.2-6.2h0A6.2,6.2,0,0,1,68.27,43.45Z"/><path class="cls-5" d="M93.1,43.45h0a6.21,6.21,0,0,1,6.21,6.21h0a6.21,6.21,0,0,1-6.21,6.2h0a6.21,6.21,0,0,1-6.21-6.2h0A6.21,6.21,0,0,1,93.1,43.45Z"/><path class="cls-5" d="M117.93,43.45h0a6.2,6.2,0,0,1,6.2,6.21h0a6.2,6.2,0,0,1-6.2,6.2h0a6.21,6.21,0,0,1-6.21-6.2h0A6.21,6.21,0,0,1,117.93,43.45Z"/><path class="cls-5" d="M68.28,68.28H211a6.2,6.2,0,0,1,6.21,6.2h0A6.21,6.21,0,0,1,211,80.69H68.28a6.21,6.21,0,0,1-6.21-6.21h0A6.2,6.2,0,0,1,68.28,68.28Z"/><path class="cls-6" d="M322.76,105.52,86.9,341.38H322.76Z"/><path class="cls-7" d="M217.24,329a21.18,21.18,0,0,1-15,6.2H157.74a21.18,21.18,0,0,1-15-6.2,21.19,21.19,0,0,0-15-6.21H0v18.62A18.62,18.62,0,0,0,18.62,360H341.38A18.62,18.62,0,0,0,360,341.38h0V322.76H232.23A21.19,21.19,0,0,0,217.24,329Z"/><path class="cls-8" d="M335.17,322.76v18.62A18.62,18.62,0,0,1,316.55,360h24.83A18.62,18.62,0,0,0,360,341.38h0V322.76Z"/><path class="cls-9" d="M322.76,167.59h24.83V180H322.76Z"/><path class="cls-9" d="M12.41,273.1H37.24v12.42H12.41Z"/><path class="cls-10" d="M147.79,117.54l-7.14-10.15a74.38,74.38,0,0,1,85.67,0l-7.15,10.15a62,62,0,0,0-71.38,0Z"/><path class="cls-10" d="M243.3,155.41c-17.22-15.68-40.05-24.32-64.29-24.32h-.87a90.52,90.52,0,0,0-51.07,15.75l-7-10.27a102.92,102.92,0,0,1,58-17.89H179c27.35,0,53.14,9.79,72.64,27.56Z"/><path class="cls-10" d="M257.73,243.63l-12-3.37a64.65,64.65,0,0,0,0-35.46,66,66,0,0,0-9.72-20.48c-12.57-17.78-33.9-28.4-57.06-28.4h-.87a67.07,67.07,0,0,0-54.86,28.94l-3,4.27L110.11,182l3-4.28a79.48,79.48,0,0,1,65-34.25H179c27.18,0,52.3,12.58,67.2,33.65a78.1,78.1,0,0,1,11.53,24.27,77,77,0,0,1,0,42.2Z"/><path class="cls-10" d="M220.91,306.89,212,298.28a142,142,0,0,0,29.46-45.39l11.51,4.67A154.48,154.48,0,0,1,220.91,306.89Z"/><path class="cls-10" d="M178.13,314.73,169.35,306l22.9-22.91a118.44,118.44,0,0,0,29.19-48,41.12,41.12,0,0,0-6.16-37.11,42.29,42.29,0,0,0-34-17.19h-3.17a42.39,42.39,0,0,0-39.81,28.9,31.91,31.91,0,0,1-7.45,11.93L119.6,232.86l-8.78-8.77,11.23-11.24a19.41,19.41,0,0,0,4.55-7.26,54.8,54.8,0,0,1,51.55-37.26h3.16a54.75,54.75,0,0,1,44,22.27,53.48,53.48,0,0,1,8,48.19,131,131,0,0,1-32.26,53Z"/><path class="cls-10" d="M152.25,305.48l-8.78-8.77,31.22-31.22a92.2,92.2,0,0,0,23.11-37.9,16.56,16.56,0,0,0-2.51-14.92,17.18,17.18,0,0,0-14-7.1h-3.17c-7.36,0-13.78,4.78-16.35,12.16A55.71,55.71,0,0,1,148.4,239.2l-1.81,1.8-8.77-8.78,1.81-1.8a43.11,43.11,0,0,0,10.42-16.72c4.29-12.3,15.57-20.54,28.1-20.54h3.17a29.46,29.46,0,0,1,24,12.18,28.88,28.88,0,0,1,4.33,26,106.07,106.07,0,0,1-26.18,42.93Z"/><path class="cls-10" d="M113.23,256.76l16.14-16.09,8.76,8.79L122,265.55Z"/><path class="cls-10" d="M133.81,288.85,125,280.08,157.12,248a68.59,68.59,0,0,0,18-31.53l12,3.06a80.93,80.93,0,0,1-21.24,37.24Z"/><path class="cls-11" d="M235.86,74.48H360v93.11H235.86Z"/><path class="cls-7" d="M248.28,49.66H273.1a24.83,24.83,0,0,1,49.66,0V74.48h24.83V49.66a49.66,49.66,0,1,0-99.31,0Z"/><path class="cls-12" d="M307.3,119.79a12.41,12.41,0,1,0-18.73,0,24.81,24.81,0,0,0-15.47,23h49.66a24.82,24.82,0,0,0-15.46-23Z"/><path class="cls-13" d="M235.86,167.59H360A108.23,108.23,0,0,0,235.86,167.59Z"/><path class="cls-14" d="M360,74.48H235.86A108.23,108.23,0,0,0,360,74.48Z"/><path class="cls-11" d="M0,223.45H173.79V273.1H0Z"/><path class="cls-15" d="M0,223.45H173.79v12.41H0Z"/><path class="cls-5" d="M24.83,242.07h0a6.2,6.2,0,0,1,6.2,6.21h0a6.2,6.2,0,0,1-6.2,6.2h0a6.21,6.21,0,0,1-6.21-6.2h0A6.21,6.21,0,0,1,24.83,242.07Z"/><path class="cls-5" d="M49.4,242.07h.51a6,6,0,0,1,6,6v.51a6,6,0,0,1-6,5.95H49.4a6,6,0,0,1-5.95-5.95V248A6,6,0,0,1,49.4,242.07Z"/><path class="cls-5" d="M74.48,242.07h0a6.21,6.21,0,0,1,6.21,6.21h0a6.21,6.21,0,0,1-6.21,6.2h0a6.2,6.2,0,0,1-6.2-6.2h0A6.2,6.2,0,0,1,74.48,242.07Z"/><path class="cls-5" d="M99.19,242.07h.24a6.09,6.09,0,0,1,6.09,6.09v.24a6.09,6.09,0,0,1-6.09,6.08h-.24a6.09,6.09,0,0,1-6.09-6.08v-.24A6.09,6.09,0,0,1,99.19,242.07Z"/></g></g></svg>