<svg xmlns="http://www.w3.org/2000/svg" viewBox="0 0 1921 250"><defs><style>.cls-1{fill:#b4cecf;opacity:0.8;isolation:isolate;}</style></defs><title>footer</title><g id="Layer_2" data-name="Layer 2"><g id="Layer_1-2" data-name="Layer 1"><g id="Layer_2-2" data-name="Layer 2"><g id="Layer_1-2-2" data-name="Layer 1-2"><path class="cls-1" d="M0,18.7C51.16,32.29,89.05,37,116,34.58c38.06-3.41,37.05-22.88,70-24.08,37.5-1.36,61.53,22,100,21,40.05-1.09,45-23.66,83-24.59,39.74-1,62.5,23,105,22.28,38.14-.66,41.81-20.38,85-22.28,50.38-2.23,85.67,22.81,134,20.49,42.53-2.05,56-19.08,97-21,50.61-2.38,77.71,23.52,125,21C956.17,25.22,976.83,3,1017,.77c49.91-2.79,69,30.28,128,28.43,54.7-1.72,69.56-25.84,119-26.38,47.46-.53,62.83,20.81,113,20.49,48.88-.32,68.13-19.4,119-20.49,61.12-1.32,90.79,28.69,148,27.15,52.36-1.42,71-26.71,111-26.38,39.28.31,45.61,24.59,82,25.1,19.68.28,46.64,5.12,83-28.69.61,44.44,1,250,1,250H0Z"/></g></g></g></g></svg>