<?xml version="1.0" encoding="utf-8"?>
<!-- Generator: Adobe Illustrator 24.0.2, SVG Export Plug-In . SVG Version: 6.00 Build 0)  -->
<svg version="1.1" id="Layer_1" xmlns="http://www.w3.org/2000/svg" xmlns:xlink="http://www.w3.org/1999/xlink" x="0px" y="0px"
	 viewBox="0 0 1103.8 826.6" style="enable-background:new 0 0 1103.8 826.6;" xml:space="preserve">
<style type="text/css">
	.st0{opacity:0.4;fill:#045A5E;}
	.st1{opacity:0.4;fill:#E34C25;}
	.st2{opacity:0.3;fill:#E34C25;}
	.st3{opacity:0.1;fill:#E34C25;enable-background:new    ;}
	.st4{opacity:0.1;}
	.st5{fill:#E34C25;}
	.st6{fill:#FFFFFF;}
	.st7{fill:#045A5E;}
	.st8{opacity:0.9;fill:#FFFFFF;enable-background:new    ;}
	.st9{opacity:0.2;fill:#E34C25;enable-background:new    ;}
	.st10{fill:none;stroke:#3F3D56;stroke-miterlimit:10;}
	.st11{opacity:0.1;enable-background:new    ;}
	.st12{fill:#A8A8A8;}
	.st13{opacity:0.2;enable-background:new    ;}
	.st14{fill:url(#SVGID_1_);}
	.st15{fill:#009999;}
	.st16{opacity:5.000000e-02;enable-background:new    ;}
	.st17{fill:#034949;}
	.st18{fill:#EE8E9E;}
	.st19{fill:#E3E8F4;}
	.st20{fill:#E6E8EC;}
	.st21{fill:#3F3D56;}
</style>
<g>
	<path class="st0" d="M100.2,312.6c-9.4-7.7-13.5-20.9-11.2-32.7c3.4-17.6,20.7-30.6,37.4-28.9c22.8,2.3,38.3,31.3,28.7,50.9
		C145.9,320.5,116.6,326.1,100.2,312.6z"/>
	<path class="st1" d="M215.1,48.2c-8.3-0.2-16.1-5.5-19.8-12.9c-5.6-10.9-1.7-25.2,8-31.3c13.3-8.4,33.8,0.7,36.9,15.4
		C243.1,33.2,229.6,48.5,215.1,48.2z"/>
	<path class="st2" d="M156.8,248.8c-36.1-0.8-69.6-24-85.8-55.7c-24.2-47.4-7.4-109,34.5-135.5c57.4-36.2,146.4,3.2,159.7,66.4
		C277.8,183.9,219.6,250.3,156.8,248.8z"/>
</g>
<title>home-bennet</title>
<ellipse class="st3" cx="843.4" cy="783.6" rx="192" ry="43"/>
<g class="st4">
	<path class="st5" d="M625,145.6C625,301.7,723,428,844,428"/>
</g>
<path class="st3" d="M123.7,473.3C106,484.1,42.1,523.9,13.4,596.6c-17.5,44.2-9.6,67.9-5.8,74.6c13.3,23.3,43.5,40,76.1,51.5
	c66.1,23.1,143.2,27.7,218.3,29.2c166.1,3.3,332.7-6.6,498.8-16.5c61.5-3.7,123.2-7.3,183.5-17.2c33.5-5.5,67.9-13.4,91.7-30.6
	c30.3-21.8,36.7-57.1,15-82.3c-36.4-42.3-133-49.7-159-95.5c-14.3-25.2-1.6-54.4,17-78.9c39.9-52.6,108.3-100,110-158.6
	c1.1-40.2-34-79.3-86.7-96.4c-68.6-22.3-136.6,6.5-169.9,21.6C558.2,308,361.8,329,123.7,473.3z"/>
<path class="st6" d="M946.9,150v518.4c0,15.4-14.9,28-33.2,28H210.3c-18.4,0-33.2-12.5-33.2-28V150c0-15.4,14.9-31.2,33.2-31.2
	l703.3,1.7C931.9,120.5,946.9,134.5,946.9,150z"/>
<path class="st7" d="M946.9,150.2v24H177v-24c0-17.3,14-31.4,31.3-31.4c0,0,0,0,0,0h707.2C932.8,118.8,946.9,132.8,946.9,150.2
	C946.9,150.1,946.9,150.1,946.9,150.2L946.9,150.2z"/>
<circle class="st8" cx="214.3" cy="146.5" r="9"/>
<circle class="st8" cx="246.6" cy="146.5" r="9"/>
<circle class="st8" cx="278.8" cy="146.5" r="9"/>
<path class="st9" d="M465.6,289.5h52.9c4.7,0,8.6,3.8,8.6,8.6v16.1c0,4.7-3.8,8.6-8.6,8.6h-52.9c-4.7,0-8.6-3.8-8.6-8.6v-16.1
	C457,293.3,460.9,289.5,465.6,289.5z"/>
<path class="st9" d="M607.4,289.5h52.9c4.7,0,8.6,3.8,8.6,8.6v16.1c0,4.7-3.8,8.6-8.6,8.6h-52.9c-4.7,0-8.6-3.8-8.6-8.6v-16.1
	C598.9,293.3,602.7,289.5,607.4,289.5z"/>
<polyline class="st10" points="491.9,322 561.9,413.5 634.1,321.5 "/>
<path class="st11" d="M517,410.6h89.9c4.7,0,8.6,3.8,8.6,8.6v33.6c0,4.7-3.8,8.6-8.6,8.6H517c-4.7,0-8.6-3.8-8.6-8.6v-33.6
	C508.4,414.4,512.2,410.6,517,410.6z"/>
<path class="st5" d="M519.1,411.6h85.5c4.7,0,8.6,3.8,8.6,8.6v31.6c0,4.7-3.8,8.6-8.6,8.6h-85.5c-4.7,0-8.6-3.8-8.6-8.6v-31.6
	C510.6,415.4,514.4,411.6,519.1,411.6z"/>
<line class="st10" x1="492.3" y1="289.5" x2="491.4" y2="257.2"/>
<polyline class="st10" points="675.3,258.7 634.1,289.5 590.8,258.7 "/>
<path class="st9" d="M465.2,225.5h52.9c4.7,0,8.6,3.8,8.6,8.6v16.1c0,4.7-3.8,8.6-8.6,8.6h-52.9c-4.7,0-8.6-3.8-8.6-8.6v-16.1
	C456.6,229.3,460.5,225.5,465.2,225.5z"/>
<path class="st9" d="M648.8,225.5h52.9c4.7,0,8.6,3.8,8.6,8.6v16.1c0,4.7-3.8,8.6-8.6,8.6h-52.9c-4.7,0-8.6-3.8-8.6-8.6v-16.1
	C640.2,229.3,644.1,225.5,648.8,225.5z"/>
<path class="st9" d="M564.4,225.5h52.9c4.7,0,8.6,3.8,8.6,8.6v16.1c0,4.7-3.8,8.6-8.6,8.6h-52.9c-4.7,0-8.6-3.8-8.6-8.6v-16.1
	C555.8,229.3,559.7,225.5,564.4,225.5z"/>
<line class="st10" x1="561.9" y1="460.3" x2="561.7" y2="548.8"/>
<polyline class="st10" points="462.5,611.9 561.5,581.3 660.9,611.7 "/>
<path class="st9" d="M535.2,548.8h52.9c4.7,0,8.6,3.8,8.6,8.6v16.1c0,4.7-3.8,8.6-8.6,8.6h-52.9c-4.7,0-8.6-3.8-8.6-8.6v-16.1
	C526.7,552.7,530.5,548.8,535.2,548.8z"/>
<path class="st9" d="M840.8,349.4h16.1c4.7,0,8.6,3.8,8.6,8.6v52.9c0,4.7-3.8,8.6-8.6,8.6h-16.1c-4.7,0-8.6-3.8-8.6-8.6V358
	C832.2,353.3,836,349.4,840.8,349.4z"/>
<path class="st9" d="M840.8,459.1h16.1c4.7,0,8.6,3.8,8.6,8.6v52.9c0,4.7-3.8,8.6-8.6,8.6h-16.1c-4.7,0-8.6-3.8-8.6-8.6v-52.9
	C832.2,462.9,836,459.1,840.8,459.1z"/>
<path class="st9" d="M634.4,611.5h52.9c4.7,0,8.6,3.8,8.6,8.6v16.1c0,4.7-3.8,8.6-8.6,8.6h-52.9c-4.7,0-8.6-3.8-8.6-8.6V620
	C625.8,615.3,629.7,611.5,634.4,611.5z"/>
<path class="st9" d="M436,611.5h52.9c4.7,0,8.6,3.8,8.6,8.6v16.1c0,4.7-3.8,8.6-8.6,8.6H436c-4.7,0-8.6-3.8-8.6-8.6V620
	C427.5,615.3,431.3,611.5,436,611.5z"/>
<path class="st9" d="M537,611.5h52.9c4.7,0,8.6,3.8,8.6,8.6v16.1c0,4.7-3.8,8.6-8.6,8.6H537c-4.7,0-8.6-3.8-8.6-8.6V620
	C528.4,615.3,532.2,611.5,537,611.5z"/>
<line class="st10" x1="801" y1="439.3" x2="832.2" y2="493.7"/>
<line class="st10" x1="735.1" y1="438.6" x2="767.8" y2="438.6"/>
<line class="st10" x1="613.3" y1="436" x2="702.5" y2="438.6"/>
<line class="st10" x1="832.2" y1="384.4" x2="801.2" y2="439"/>
<path class="st9" d="M711.1,403.4h16.1c4.7,0,8.6,3.8,8.6,8.6v52.9c0,4.7-3.8,8.6-8.6,8.6h-16.1c-4.7,0-8.6-3.8-8.6-8.6v-52.9
	C702.5,407.2,706.4,403.4,711.1,403.4z"/>
<path class="st9" d="M776.4,404.2h16.1c4.7,0,8.6,3.8,8.6,8.6v52.9c0,4.7-3.8,8.6-8.6,8.6h-16.1c-4.7,0-8.6-3.8-8.6-8.6v-52.9
	C767.8,408.1,771.6,404.2,776.4,404.2z"/>
<path class="st9" d="M267,349.4h16.1c4.7,0,8.6,3.8,8.6,8.6v52.9c0,4.7-3.8,8.6-8.6,8.6H267c-4.7,0-8.6-3.8-8.6-8.6V358
	C258.4,353.3,262.3,349.4,267,349.4z"/>
<path class="st9" d="M267,459.1h16.1c4.7,0,8.6,3.8,8.6,8.6v52.9c0,4.7-3.8,8.6-8.6,8.6H267c-4.7,0-8.6-3.8-8.6-8.6v-52.9
	C258.4,462.9,262.3,459.1,267,459.1z"/>
<line class="st10" x1="322.8" y1="439.3" x2="291.6" y2="493.7"/>
<line class="st10" x1="388.7" y1="438.6" x2="356" y2="438.6"/>
<line class="st10" x1="510.6" y1="436" x2="421.3" y2="438.6"/>
<line class="st10" x1="291.6" y1="384.4" x2="322.6" y2="439"/>
<path class="st9" d="M396.6,403.4h16.1c4.7,0,8.6,3.8,8.6,8.6v52.9c0,4.7-3.8,8.6-8.6,8.6h-16.1c-4.7,0-8.6-3.8-8.6-8.6V412
	C388.1,407.2,391.9,403.4,396.6,403.4z"/>
<path class="st9" d="M331.4,404.2h16.1c4.7,0,8.6,3.8,8.6,8.6v52.9c0,4.7-3.8,8.6-8.6,8.6h-16.1c-4.7,0-8.6-3.8-8.6-8.6v-52.9
	C322.8,408.1,326.6,404.2,331.4,404.2z"/>
<path class="st7" d="M108.1,620.7c0,50.2,31.5,90.9,70.5,90.9"/>
<path class="st5" d="M178.5,711.6c0-50.8,35.2-91.9,78.7-91.9"/>
<path class="st5" d="M133.6,625.3c0,47.7,20.1,86.3,44.9,86.3"/>
<path class="st7" d="M178.5,711.6c0-64.9,40.7-117.5,90.9-117.5"/>
<ellipse class="st3" cx="175.5" cy="726" rx="17.5" ry="3"/>
<path class="st12" d="M163.7,712.2c0,0,10-0.3,13-2.5s15.4-4.7,16.1-1.3s15,17.1,3.7,17.2s-26.2-1.8-29.2-3.6
	S163.7,712.2,163.7,712.2z"/>
<path class="st13" d="M196.8,724.5c-11.3,0.1-26.2-1.8-29.2-3.6c-2.3-1.4-3.2-6.4-3.5-8.7h-0.3c0,0,0.6,8.1,3.6,9.9
	s17.9,3.7,29.2,3.6c3.3,0,4.4-1.2,4.3-2.9C200.4,723.9,199.2,724.5,196.8,724.5z"/>
<linearGradient id="SVGID_1_" gradientUnits="userSpaceOnUse" x1="891.8195" y1="809.1368" x2="891.8195" y2="541.2413" gradientTransform="matrix(1 0 0 1 -48.1 4.31)">
	<stop  offset="0" style="stop-color:#808080;stop-opacity:0.25"/>
	<stop  offset="0.54" style="stop-color:#808080;stop-opacity:0.12"/>
	<stop  offset="1" style="stop-color:#808080;stop-opacity:0.1"/>
</linearGradient>
<path class="st14" d="M956.3,767.6l-27.7-40.1c0,0-0.5-9.9-2.3-12.3s-0.4-7.5-0.4-7.5s1.9-2.8,0.3-3.1s-0.3-6.6-0.3-6.6l-0.1-10.1
	c0,0,1.5-9.7,0.3-12c-0.8-1.3-0.7-2.9,0.1-4.1c0,0,1.5-5.5,0-7s-1.1-10.1-0.8-16.9s-2.7-10.7-2.7-11.7s-10.2-11.1-10.2-12
	c0-0.9-6.5-4.6-10.3-5.7s-5.8-1.8-5.7-2.3s-6.1-2.6-6.1-2.6s-5.4-0.4-7.5-3.1c-2.1-2.7-8.4-3.5-8.6-3.5c0-0.2-0.1-0.4-0.1-0.5
	l-0.1-0.6c0.5-0.8,0.9-1.7,1.3-2.5l0.4-0.8c2.3,0,4.5-0.7,6.4-2c1.8-1.5,3-3.8,3.1-6.2c0.1-2.4-0.4-4.8-1.5-6.9
	c-1.1-2.3-2.8-4.7-2.2-7.3c0.3-1.1,0.9-2,1.2-3.1c0.5-2.1,0.2-4.3-0.9-6.1c-1-1.9-2.3-3.5-3.4-5.3c-1.4-2.3-2.3-4.9-2.7-7.5
	c-0.1-1.4-0.4-2.8-1-4.1c-0.6-0.9-1.4-1.7-2.3-2.3c-4-2.9-8.9-4.4-13.9-4.2c-3.5,0.1-7,1.1-10.5,0.6c-2.1-0.4-4.1-0.9-6.2-1.6
	c-4.3-1.3-9.3-1.8-13.1,0.7c-3.8,2.5-5.3,7.4-7.8,11.2c-2.3,3.4-5.6,6.2-7.3,9.8c0-0.1,0-0.1,0-0.2c-0.4,0.8-0.8,1.7-1,2.6
	c-0.7,2.8-0.1,5.8,0.6,8.5c0.4,1.5,0.8,3,2.1,3.8s3,0.6,4.5,0.9c-0.1,0.3-0.1,0.5-0.2,0.7c-3.2,15.1,5.7,30.1,20.5,34.4v0.8
	c0,0.7-0.1,1.5-0.1,2.2l0,0c0,0-13-2.7-16.5-0.9c-3.5,1.8-10.3,3.2-11.4,4.3c-1,1-3.6,0.3-6,6.3s-2.6,12.3-5.6,15.1
	s-4.5,4.8-4.7,6.8s0.4,2.6-0.8,3.2s-2.8,3.3-2.3,4.4c0,0,0.7,2.6-1.4,3.9c-1.2,0.9-1.9,2.4-1.8,3.9c0,0-0.8,2.8-2.6,3.5
	s-3,4.9-3,4.9l-5.9,6.7l-11.6-12.9c-1.8-2-4.9-2.2-6.9-0.3l-5.6,5.2c-2.2,0.5-4.2,1.7-5.7,3.4c-1.3,1.3-2.3,2.8-3,4.4l-3.1,2.8
	c-2,2.5-2.3,5.9-0.8,8.8l7.4,8.2v0.1c-2.6,0.2-5.2,1.2-7.2,2.9c-11.1,9.8-11.3,18.8-9.6,23s15.8,20,15.8,20s8.2,10.7,20,16.3l0,0
	l-0.1,0.1c-0.2,0.3-0.5,0.5-0.7,0.8l-0.2,0.3l-0.2,0.3l-0.2,0.3l-0.2,0.3l-0.2,0.4c0,0.1-0.1,0.2-0.1,0.3c-0.1,0.2-0.2,0.3-0.3,0.5
	l-0.1,0.2c-0.1,0.2-0.2,0.5-0.3,0.7c0,0.1-0.1,0.2-0.1,0.3c0,0.1-0.1,0.3-0.2,0.5l-0.1,0.3c-0.1,0.2-0.1,0.3-0.2,0.5
	s-0.1,0.2-0.1,0.4l-0.2,0.6l-0.1,0.3c-0.1,0.3-0.1,0.6-0.2,0.9l-0.1,0.4c0,0.2-0.1,0.4-0.1,0.7c0,0.2,0,0.3-0.1,0.5
	c0,0.2,0,0.4-0.1,0.6c-0.1,0.2,0,0.3,0,0.5c0,0.2,0,0.5,0,0.7v0.5c0,0.4,0,0.8,0,1.3c-0.3,15.1,0.6,17.3,0.6,17.3s1.8,4.8,6.9,5.2
	c0.7,0.1,1.5,0,2.2-0.1c6.7-1.2,22.5-3.9,28.1-2.8c3.3,0.6,9.5-0.3,13.9-1.1l1.2-0.2l0.8,2.6l2.6-0.7l2.2,1.3l1.4,0.8
	c2.5,8.7,12.9,5.7,12.9,5.7l2.5,1.4l25,0.6c2.8,1.7,5.8,3.1,8.8,4.3c0.4,0.1,0.8,0.2,1.3,0.3c2.3,0.2,4.6,0.2,7,0.1
	c1.9,0,3.4-0.1,3.4-0.1s-0.3-6.8-0.6-14.4c9.5-0.4,18-1,23.1-1.9c13.3-2.3,18.8-14.5,20.9-21c0.6,2.6,1.1,5.3,1.3,8
	c0.5,2.4,1.2,4.7,2.1,7c0.7,1.8,1.7,3.6,2.8,5.2c9.8-3.3,3.9-8.4,1.8-10.6s1.4-4,1.4-4s2.7-1.8,2.5-3.5s-0.4-3.5,8.4-3.3
	S956.3,767.6,956.3,767.6z M819.7,685.2c0.1,0.7,1.3,8.7,2.5,10.8c0.3,1.4,0.4,2.8,0.3,4.3c-5.2-0.4-10.6-0.6-10.6-0.6
	c0.2,0.2,0.3,0.4,0.3,0.7l-0.8-0.2c-0.4-0.1-0.8-0.2-1.2-0.3L819.7,685.2L819.7,685.2z M800.7,715.5l9,1.4l0.8,0.1
	c-0.3,1.4-0.4,2.8-0.5,4.3c0,0.1,0.2,0.3,0.5,0.5c-0.1,0.7-0.2,1.4-0.2,2.1c0.1,0.7,4.4,2.3,9.2,3.5c-0.1,0.3-0.1,0.5-0.2,0.7l0,0
	c-4.3-2.3-11-3.3-11.8-5s-23.6-9.6-23.6-9.6s-0.8-0.5-2.3-1.1l6,1.1l1.7-0.2C793.1,714.3,796.9,715,800.7,715.5L800.7,715.5z"/>
<path class="st15" d="M926.8,773.2c0,0-3.6,21.7-21.8,24.9s-78.9,2.6-78.9,2.6s-34.7-5-47.3-34.3s-20.6-41-9.9-41.5
	s68.8,19.6,72.2,19.9S930,700,926.8,773.2z"/>
<path class="st16" d="M926.8,773.2c0,0-3.6,21.7-21.8,24.9s-78.9,2.6-78.9,2.6s-34.7-5-47.3-34.3s-20.6-41-9.9-41.5
	s68.8,19.6,72.2,19.9S930,700,926.8,773.2z"/>
<path class="st17" d="M763.9,797.3c0,0,1.8,4.8,6.8,5.1c0.7,0.1,1.5,0,2.2-0.1c6.7-1.2,22.3-3.8,27.8-2.8c3.3,0.6,9.5-0.3,13.8-1.1
	c2.9-0.5,5-1.1,5-1.1s-5.1-17-5.8-17.6s-23.1-14-23.1-14l-17.8-1.2l0,0c-2.4,0.4-4.5,1.6-6,3.5c-1.9,2.3-3.5,6-3.6,12.1
	C763,795.1,763.9,797.3,763.9,797.3z"/>
<path class="st16" d="M763.9,797.3c0,0,1.8,4.8,6.8,5.1c-1.7-2.2-3.3-4.6-4.8-7L766,783c-0.7-6.9,1.9-13.8,7-18.5h-0.1
	c0,0-9.3,0.6-9.6,15.6S763.9,797.3,763.9,797.3z"/>
<path class="st11" d="M840.9,770.1l16.5-12.9l26-25.6c0,0-2.8-0.1-7-0.3c-1,0.7-4,2.8-4.1,5.3c-0.1,3.1-7,0.2-10.6,2
	s-21.1,24.3-24.2,24.1s-5.5-1.6-6.8,0.6l-0.1,0.1L840.9,770.1z"/>
<path class="st11" d="M766.9,768c0.6,0.3,1.2,0.6,1.8,0.8c12.6,5.4,28.1,16.7,29.2,18.7c0.7,1.3,9.7,6.7,16.6,10.8
	c2.9-0.5,5-1.1,5-1.1s-5.1-17-5.8-17.6s-23.1-14-23.1-14l-17.8-1.2l0,0C770.6,764.9,768.4,766.1,766.9,768z"/>
<path class="st15" d="M732,731.3c1.7,4.1,15.6,19.9,15.6,19.9s8.8,11.5,21.4,16.9s28.1,16.7,29.2,18.7c0.7,1.3,10.8,7.3,17.8,11.5
	l1.6,0.9l3.5,2l1.8,1.1c0,0,4.3-3.5,8.6-6.9s8.4-6.9,8.5-7c0.1-0.4,1.8-4.7,1.4-5c-0.2-0.1-1.1-1.9-2.7-4c-1.7-2.3-4-4.1-6.5-5.4
	c-5.9-2.7-8.5-8.8-8.5-8.8s-0.6-0.4-1.4-0.9c-1.7-1.2-3.7-2.1-5.8-2.6c-2.8-0.3-8.1-6.1-8.1-6.1s-3.6-2.3-5-5.3s-21.2-16.4-23-17.7
	l48.2,31l11.5,7.4l16.5-12.9l26-25.6c0,0-3.5-0.2-8.6-0.4c-12.7-0.5-35.1-1.4-37.9-0.8c-2.3,0.5-4.7,0.7-7,0.5c0,0-6.4,0.3-10.6-1.9
	s-10.9-3.3-11.7-4.9s-23.5-9.6-23.5-9.6s-30.9-16.4-41.9-6.7S730.4,727.2,732,731.3z"/>
<path class="st18" d="M831.6,637.2l4,13.2l5.1,29.7l18.8,1.3l5.5-9l5.4-9c0,0,3.4-12,5.8-23.6c2.2-10.3,3.6-20.3,1.2-21.3
	c-2.1-1-3.5-4.4-4.3-8.1c-0.1-0.5-0.2-0.9-0.3-1.4c-0.6-3.2-1-6.3-1.3-9.6c0,0-39.5-2-34,14.2c1,2.8,1.5,5.7,1.5,8.7
	c0,0.7,0,1.5-0.1,2.2C838.4,629.6,835.7,634.2,831.6,637.2z"/>
<path class="st19" d="M823.4,635.1l1.4,22.4l3.2,19.1l3.6,8.8l3.2,48.4c0,0,30.9,3.6,38.4-0.1c0.5-0.2,1-0.6,1.4-1.1
	c9.1-13.7,6.1-53.4,6.1-53.4l3.5-25.6l-2.3-13.3l-5.6-0.6l-4.3-0.5c0,0-1,1.2-2.4,3c-3.8,5-10.8,14.9-10.3,19
	c0.6,5.6-0.8,11.4-3,12.3s-4,2.4-4.3,0.9s-0.8-1.9-0.4-4.1s-1.7-8.8-1.7-8.8s-3.5-7.8-3.2-11.2s-0.4-7.2-1.4-8.1s-2.4-1.8-1.3-5.9
	s-5-12-5-12L823.4,635.1z"/>
<path class="st11" d="M864.2,691.1l1.3,38.3l7.4,4.1c0.5-0.2,1-0.6,1.4-1.1c9.1-13.7,6.1-53.4,6.1-53.4l3.5-25.6l-2.3-13.3l-5.6-0.6
	c2.2-10.3,3.6-20.3,1.2-21.3c-2.1-1-3.5-4.4-4.3-8.1l0,0l-4,27.1c0,0,0.3,2.5,0.5,5c0.2,1.6,0.1,3.2-0.3,4.8
	c-0.9,2.3-0.3,6.4-0.3,6.4c-2.3,4.1-3.5,11.6-4,18.9C863.9,681.8,864.2,691.1,864.2,691.1z"/>
<path class="st7" d="M872.9,609.4c0,0,6.5,0.8,8.5,3.5s7.4,3.1,7.4,3.1s6.2,2,6,2.6s1.8,1.3,5.6,2.3c3.8,1,10.3,4.7,10.3,5.6
	s10.2,10.9,10.2,11.9s3.1,4.9,2.7,11.7s-0.8,15.4,0.8,16.8s0,6.9,0,6.9c-0.8,1.2-0.9,2.8-0.1,4.1c1.3,2.3-0.3,12-0.3,12l0.1,10
	c0,0-1.4,6.3,0.3,6.5s-0.3,3.1-0.3,3.1s-1.4,5.1,0.4,7.4s2.3,12.2,2.3,12.2l27.4,39.9c0,0,0.4,7.3-8.3,7.2s-8.6,1.7-8.3,3.3
	s-2.4,3.5-2.4,3.5s-3.5,1.8-1.4,4s7.9,7.2-1.8,10.5c-1.1-1.6-2.1-3.3-2.8-5.1c-0.8-2.3-1.5-4.6-2-6.9c0,0-0.9-9.7-2.7-11
	s-1.5-7.4-1.5-7.4s2.6-5-1-7S866.3,729,866.3,729l-1.3-38.4c0,0-0.9-28.3,4.5-37.8c0,0-0.6-4.1,0.3-6.4s-0.1-9.7-0.1-9.7
	L872.9,609.4z"/>
<path class="st11" d="M839.4,624.8c0,0-12.9-2.7-16.3-0.9c-3.5,1.8-10.3,3.2-11.3,4.2c-1,1-3.6,0.3-5.9,6.3s-2.6,12.2-5.5,15
	s-4.5,4.7-4.6,6.8s0.4,2.6-0.8,3.2s-2.8,3.3-2.3,4.3s26.7,23.6,26.7,23.6s1.3,8.6,2.4,10.8s-1.3,32.2-3.8,34.2s17.3,1.9,17.3,1.9
	s0.9-19.7,1.7-20.7s-0.5-22-0.5-22s-0.1-17.9,1.5-22.7s1.5-20.5,1.5-20.5s1.5-9.5,3.3-11.7S839.4,624.8,839.4,624.8z"/>
<path class="st7" d="M838.9,624.4c0,0-12.9-2.7-16.3-0.9c-3.5,1.8-10.2,3.2-11.2,4.2s-3.6,0.3-5.9,6.3s-2.6,12.2-5.5,15
	s-4.5,4.7-4.6,6.8s0.4,2.6-0.8,3.2s-2.8,3.3-2.3,4.4s26.7,23.6,26.7,23.6s1.3,8.6,2.4,10.8s-1.3,32.2-3.8,34.2s17.3,1.9,17.3,1.9
	s0.9-19.7,1.7-20.7s-0.5-22-0.5-22s-0.1-17.9,1.5-22.7s1.4-20.5,1.4-20.5s1.5-9.5,3.3-11.7S838.9,624.4,838.9,624.4z"/>
<path class="st11" d="M837.6,613.5c1,2.8,1.5,5.7,1.5,8.7c13,3.9,26.9-1.6,33.7-13.3c-0.6-3.2-1-6.3-1.3-9.6
	C871.6,599.3,832.1,597.2,837.6,613.5z"/>
<path class="st18" d="M818.1,593.3c0,16.2,13.1,29.3,29.4,29.3c16.2,0,29.3-13.1,29.3-29.4c0-16.2-13.1-29.3-29.4-29.3
	c-13.9,0-25.8,9.7-28.7,23.3C818.4,589.2,818.1,591.2,818.1,593.3z"/>
<path class="st7" d="M799.3,661.2l-7,2.2c0,0,0.7,2.6-1.4,3.8c-1.2,0.9-1.9,2.3-1.8,3.8c0,0-0.8,2.8-2.6,3.5s-3,4.9-3,4.9l-5.9,6.8
	c0,0-2.2,1.8-1.8,2.7s-2.3,1.2-2.3,1.2l1.3,22.8l12.2,2.3l7.6-0.8l6.2-2.3l5.4-3.2l2.4-6.3l10.8-16.4L799.3,661.2z"/>
<path class="st18" d="M775.3,691.8c0,0-15.6-22.5-27.3-10.4s4.7,31.9,8.6,31.3s22.2-1.7,22.2-1.7L775.3,691.8z"/>
<path class="st7" d="M713,701.1l27.5-53.9c0.4-0.8,1.3-1.1,2.1-0.7l70.1,35.8c0.8,0.4,1.1,1.3,0.7,2.1l-27.5,53.9
	c-0.4,0.8-1.3,1.1-2.1,0.7l-70.1-35.8C712.9,702.8,712.6,701.9,713,701.1z"/>
<rect x="737.4" y="658.3" transform="matrix(0.4546 -0.8907 0.8907 0.4546 -200.6758 1057.6208)" class="st5" width="51.8" height="68.8"/>
<circle class="st20" cx="730.3" cy="675.8" r="1.1"/>
<circle class="st20" cx="796.6" cy="709.8" r="1.9"/>
<path class="st18" d="M765.2,696.6c-0.1,16.9,34.9,20.5,34.9,20.5l8.9,1.4l4,0.6l1.7-16.5c0,0-1.8-0.3-4.1-0.8
	c-3.4-0.8-7.8-2.2-8.7-4.1C800.3,694.5,765.3,679.6,765.2,696.6z"/>
<path class="st11" d="M818.8,587.2c0.8,0.1,1.6,0.4,2.2,1c1,1,1,2.9,2.3,3.5c0.5,0.2,1,0.3,1.5,0.2c3.4-0.5,5.4-4.3,8.7-5.4
	c1.9-0.5,3.9-0.3,5.7,0.5c0.7,0.2,1.4,0.6,1.9,1.2c1.1,1.4,0.3,3.5,0.8,5.2c0.7,2.4,3.5,3.3,6,3.6c2.5,0.3,5.2,0.5,6.9,2.3
	c1.1,1.4,1.6,3.2,1.2,5c-0.1,0.6-0.1,1.2,0,1.8c0.7,1.9,4,1.6,4.9,0.1c0.6-1.1,0.5-2,1.9-2.3c1.1-0.1,2.2,0.1,3.1,0.5
	c2.6,0.9,5.4,1.3,8.1,1.2c6.5-14.9-0.3-32.2-15.1-38.7c-14.3-6.2-30.9-0.3-37.9,13.6C820,582.9,819.3,585,818.8,587.2L818.8,587.2z"
	/>
<path class="st21" d="M856,605.4c-0.1-0.6-0.1-1.2,0-1.8c0.3-1.8-0.1-3.6-1.2-5c-1.7-1.9-4.4-2-6.9-2.3c-2.5-0.3-5.3-1.3-6-3.6
	c-0.5-1.7,0.3-3.8-0.8-5.2c-0.5-0.6-1.2-1-1.9-1.2c-1.8-0.8-3.8-1-5.7-0.5c-3.3,1.1-5.2,4.9-8.7,5.4c-0.5,0.1-1,0-1.5-0.2
	c-1.3-0.6-1.3-2.5-2.3-3.5c-1.6-1.7-4.5-0.6-6.4-1.8c-1.2-0.8-1.7-2.4-2.1-3.8c-0.7-2.8-1.2-5.7-0.6-8.5c1.1-4.8,5.4-8,8.1-12.1
	c2.5-3.8,4-8.6,7.8-11.1c3.8-2.5,8.7-1.9,13-0.7c2,0.7,4,1.2,6.1,1.6c3.5,0.4,6.9-0.5,10.4-0.6c4.9-0.2,9.7,1.3,13.8,4.2
	c0.9,0.6,1.7,1.4,2.3,2.3c0.6,1.3,0.9,2.7,1,4.1c0.4,2.6,1.3,5.2,2.7,7.5c1.1,1.8,2.4,3.4,3.4,5.3c1.1,1.8,1.4,4,0.9,6.1
	c-0.3,1-1,2-1.2,3.1c-0.6,2.5,1.1,4.9,2.2,7.2c1.1,2.1,1.6,4.5,1.5,6.8c-0.1,2.4-1.2,4.6-3.1,6.1c-1.9,1.3-4.2,2-6.5,2
	c-2.8,0.1-5.6-0.3-8.3-1.3c-1-0.4-2.1-0.6-3.1-0.5c-1.5,0.3-1.3,1.2-1.9,2.3C860,607,856.7,607.3,856,605.4z"/>
<path class="st11" d="M840.2,770.9l16.5-12.9l26-25.6c0,0-3.5-0.2-8.6-0.4c-1,0.9-1.6,2.2-1.8,3.5c-0.1,3.1-7,0.2-10.6,2
	s-21.1,24.3-24.2,24.1s-5.5-1.6-6.8,0.6l-0.1,0.1c-0.5,0.6-1.2,1-2,1.2L840.2,770.9z"/>
<path class="st15" d="M806.9,770l8.3,26.5l1.3,4.2l4-1.1l8.7-2.4l38.8-10.7c4.9-0.2,9.7-1.5,14-3.7c7.3-4.1,15.7-5.9,24.1-5.3
	c5.1,0.5,10.8-1.7,15.6-10.5c0,0,10.8-31.8-16.4-40.9s-28.5,4.8-28.5,4.8l-0.4,0.2c-1,0.7-4,2.8-4.1,5.3c-0.1,3.1-7,0.2-10.6,2
	s-21.2,24.3-24.3,24.1s-5.5-1.6-6.8,0.6l-0.1,0.1c-1,1.3-3.8,1.6-5.7,1.7h-1.8l-0.2,0.1l-2,0.6L806.9,770z"/>
<path class="st11" d="M809,718.5l4,0.6l1.7-16.5c0,0-1.8-0.3-4.1-0.8C811.2,704.1,809.8,713,809,718.5z"/>
<path class="st11" d="M913.8,641.2c0,0,11.9-3.5,9,30.4s-25,55.2-25,55.2s-25.4,11.2-36.8,9.4c-6.5-1.1-13.1-1.8-19.7-2.2
	c-3.6-1.8-7.5-2.9-11.5-3.1c-6.4-0.3-19.9-4.2-20.1-5.5s3.3-20.1,1.8-21.5c0,0,17.9,0.7,19.7,2s4.4,0.4,6.3,0s7.8-5.5,19.5-1
	c0,0,4,0.4,5.5-0.6s4-0.3,4-0.3c1-0.3,1.9-0.8,2.8-1.4c0.4-0.5,3.5,0,3.5,0c0.7,0.3,1.5,0.1,1.8-0.6c0-0.1,0.1-0.2,0.1-0.3
	c0.4-1,1-2,1.8-2.8c0,0,3.5-19.5,10-26.8c0,0,1.9-1.7,1.4-3.7S898.4,637.1,913.8,641.2z"/>
<path class="st7" d="M913.5,638.6c0,0,11.9-3.5,9,30.4s-25,55.2-25,55.2s-25.4,11.2-36.8,9.4s-19.8-2.2-19.8-2.2
	c-3.6-1.8-7.5-2.9-11.5-3.1c-6.4-0.3-19.9-4.2-20.1-5.5s3.3-20.1,1.8-21.5c0,0,17.9,0.7,19.7,2s4.4,0.4,6.3,0s7.8-5.5,19.5-1
	c0,0,4,0.4,5.5-0.6s4-0.3,4-0.3c1-0.3,1.9-0.8,2.8-1.4c0.4-0.5,3.5,0,3.5,0c0.7,0.3,1.5,0.1,1.8-0.6c0-0.1,0.1-0.2,0.1-0.3
	c0.4-1,1-2,1.8-2.8c0,0,3.5-19.5,10-26.8c0,0,1.9-1.7,1.4-3.7S898.1,634.5,913.5,638.6z"/>
<path class="st11" d="M820.9,765.8l16.9,20.5c0.1-0.1,0.1-0.1,0.1-0.1c0.1-0.4,1.8-4.7,1.4-5s-3.3-6.7-9.2-9.4
	c-3-1.5-5.5-3.8-7.2-6.6L820.9,765.8z"/>
<path class="st11" d="M821.2,801.2l1.8,1.1c0,0,4.3-3.5,8.6-6.9s8.4-6.9,8.5-7c0.1-0.4,1.8-4.7,1.4-5c-0.2-0.1-1.1-1.9-2.7-4
	c-11.5-3.2-4.2,4.8-3.2,5.1c0,0-14-3.2-14.7,12C820.7,798.1,820.8,799.7,821.2,801.2z"/>
<path class="st17" d="M835.3,807.7l2.4,1.4l24.7,0.6c2.8,1.7,5.7,3.1,8.8,4.2c0.4,0.1,0.8,0.2,1.2,0.3c2.3,0.2,4.6,0.2,6.9,0.1
	c1.9,0,3.4-0.1,3.4-0.1s-1.2-31.2-2-34.5c-0.4-1.6-2.5-1.2-4.5-0.4c-1.5,0.6-3,1.4-4.4,2.2c0,0-10.5,1-12.2,1.9s-6.4-0.5-9.3,0
	S842,780,842,780c-14.4-4.7-6.3,4.1-5.3,4.5c0,0-14-3.2-14.7,12S835.3,807.7,835.3,807.7z"/>
<path class="st17" d="M871.1,795.6c0.3,6.5,5.3,14.5,8.3,18.7c1.9,0,3.4-0.1,3.4-0.1s-1.2-31.2-2-34.5c-0.4-1.6-2.5-1.2-4.5-0.4
	C873.7,783.9,870.8,790.4,871.1,795.6z"/>
<path class="st11" d="M871.1,795.6c0.3,6.5,5.3,14.5,8.3,18.7c1.9,0,3.4-0.1,3.4-0.1s-1.2-31.2-2-34.5c-0.4-1.6-2.5-1.2-4.5-0.4
	C873.7,783.9,870.8,790.4,871.1,795.6z"/>
<path class="st16" d="M866.8,796.5c1.7,6.2,1.7,13.2,4.4,17.5c0.4,0.1,0.8,0.2,1.2,0.3c2.3,0.2,4.6,0.2,6.9,0.1
	c1.9,0,3.4-0.1,3.4-0.1s-1.2-31.2-2-34.5c-0.4-1.6-2.5-1.2-4.5-0.4c-1.5,0.6-3,1.4-4.4,2.2C871.8,781.5,864.7,788.5,866.8,796.5z"/>
<path class="st11" d="M781.5,733.3c0,0,12.3,4,22.7,18.2L781.5,733.3z"/>
<g class="st4">
	<path d="M881.3,579.5c0,0.1,0,0.2-0.1,0.3c-0.1,0.4-0.3,0.7-0.4,1.1C881,580.4,881.1,579.9,881.3,579.5z"/>
	<path d="M811.8,573.3c0.2-0.9,0.6-1.8,1-2.6c-0.1,0.2-0.1,0.4-0.2,0.7c-0.7,2.8-0.1,5.7,0.6,8.5c0.3,1.4,0.8,3,2.1,3.8
		c1.9,1.2,4.9,0.2,6.4,1.8c1,1,1,2.9,2.3,3.5c0.5,0.2,1,0.3,1.5,0.2c3.4-0.5,5.4-4.3,8.7-5.4c1.9-0.5,3.9-0.3,5.7,0.5
		c0.7,0.2,1.4,0.6,1.9,1.2c1.1,1.4,0.3,3.5,0.8,5.2c0.7,2.4,3.5,3.3,6,3.6s5.2,0.5,6.9,2.3c1.1,1.4,1.6,3.2,1.2,5
		c-0.1,0.6-0.1,1.2,0,1.8c0.7,1.9,4,1.6,4.9,0.1c0.6-1.1,0.4-2,1.9-2.3c1.1-0.1,2.2,0.1,3.1,0.5c2.7,0.9,5.5,1.3,8.3,1.2
		c2.3,0,4.6-0.7,6.5-2c0.8-0.7,1.5-1.5,2-2.4c-0.4,1.7-1.4,3.2-2.8,4.3c-1.9,1.3-4.2,2-6.5,2c-2.8,0.1-5.6-0.4-8.3-1.3
		c-1-0.4-2.1-0.6-3.1-0.5c-1.5,0.3-1.3,1.2-1.9,2.3c-0.9,1.5-4.2,1.8-4.9-0.1c-0.1-0.6-0.1-1.2,0-1.8c0.3-1.8-0.1-3.6-1.2-5
		c-1.7-1.9-4.4-2-6.9-2.3c-2.5-0.3-5.3-1.3-6-3.6c-0.5-1.7,0.3-3.8-0.8-5.2c-0.5-0.6-1.2-1-1.9-1.2c-1.8-0.8-3.8-1-5.7-0.5
		c-3.3,1.1-5.3,4.9-8.7,5.4c-0.5,0.1-1,0-1.5-0.2c-1.3-0.6-1.3-2.5-2.3-3.5c-1.6-1.6-4.5-0.6-6.4-1.8c-1.2-0.8-1.7-2.4-2.1-3.8
		C811.5,579,811.4,576.1,811.8,573.3z"/>
</g>
<path class="st11" d="M883.3,675.8c-2.3,3.2-5,6.1-7.1,9.5s-3.5,7.3-3.1,11.2c2.2-2.2,3.1-5.3,4.5-8c2.3-4.7,5.7-8.7,8.6-13
	c0.5-0.8,4.1-5.6,2.3-5.8C887,669.5,884.1,674.8,883.3,675.8z"/>
</svg>
