<svg xmlns="http://www.w3.org/2000/svg" viewBox="0 0 391.3 120"><defs><style>.cls-1{fill:#045a5e;}.cls-2{fill:#e34c25;}</style></defs><title>logo</title><g id="Layer_2" data-name="Layer 2"><g id="Layer_1-2" data-name="Layer 1"><path class="cls-1" d="M195.41,49.42c-.17,15.57-9.72,31.14-30.89,31.14s-31-15.22-31-31.06,10.15-31.74,31-31.74S195.58,33.68,195.41,49.42Zm-50.68.26c.26,9.89,5.6,20.47,19.79,20.47s19.53-10.66,19.7-20.56c.17-10.15-5.5-21.51-19.7-21.51S144.48,39.53,144.73,49.68Z"/><path class="cls-1" d="M257.15,79.19H243.64L226.09,59.05H215.17V79.19H203.81V18.88c9.55,0,19.1.08,28.65.08,14.2.09,21.68,9.55,21.68,20,0,8.26-3.79,16.61-15.23,18.93l18.24,20.56Zm-42-49.64V48.82h17.29c7.23,0,10.32-4.82,10.32-9.64s-3.18-9.63-10.32-9.63Z"/><path class="cls-1" d="M310.73,36.43c0,4.64-2.24,9.12-7.83,11.61,7.05,2.15,9.63,9.64,9.63,13.42,0,13.43-10.06,17.73-22.54,17.73H261.43V19H290C301.86,19,310.73,24.3,310.73,36.43Zm-38.12,6.71H290c7.14,0,9.46-3,9.46-6.45,0-2.76-2.23-7.4-9.46-7.4H272.61Zm0,25.46H290c4.65,0,11.27-1.54,11.27-7.22,0-5.42-6.62-8.26-11.27-8.26H272.61Z"/><path class="cls-1" d="M320.6,79.19V19h11.27V79.19Z"/><path class="cls-1" d="M360.85,29.29h-19.1V19H391.3V29.29H372.2v49.9H360.85Z"/><path class="cls-2" d="M139.83,103.14h-6.28v-3.4h16.3v3.4h-6.28v16.41h-3.74Z"/><path class="cls-2" d="M195.15,119.55H180.33V99.74h14.82v3.62H184v4.56h10.73v3.48H184v4.47h11.12Z"/><path class="cls-2" d="M243.77,117.06a10.48,10.48,0,0,1-7.53,2.94c-7.36,0-10.47-5.07-10.5-10.22s3.34-10.43,10.5-10.43a10.2,10.2,0,0,1,7.27,3L241,104.78a6.76,6.76,0,0,0-4.78-1.87,6.5,6.5,0,0,0-6.82,6.87c0,3.29,1.93,6.71,6.82,6.71a7.29,7.29,0,0,0,5-2Z"/><path class="cls-2" d="M287.62,119.57v-8h-9.73v8h-3.73V99.77h3.73v8.35h9.73V99.77h3.71v19.8Z"/><path class="cls-2" d="M336.13,99.71h3.73v19.84h-2.32v0l-10.41-13.38v13.36h-3.74V99.74h3L336.13,112Z"/><path class="cls-2" d="M391.3,109.76c-.05,5.12-3.19,10.24-10.15,10.24S371,115,371,109.78s3.34-10.43,10.19-10.43S391.36,104.58,391.3,109.76Zm-16.66.08c.08,3.26,1.84,6.74,6.51,6.74s6.42-3.51,6.47-6.77-1.81-7.07-6.47-7.07S374.55,106.5,374.64,109.84Z"/><path class="cls-2" d="M46.38,21.47A43.49,43.49,0,0,1,75.84,27a5.46,5.46,0,0,0,7.79-2.77h0a5.54,5.54,0,0,0-2.35-6.83A54.75,54.75,0,0,0,.13,52.81a5.57,5.57,0,0,0,3.36,6.37h0a5.47,5.47,0,0,0,7.38-3.84A43.82,43.82,0,0,1,46.38,21.47Z"/><path class="cls-2" d="M60.86,107.86A43.4,43.4,0,0,1,34.49,104a5.5,5.5,0,0,0-7.08,2h0a5.48,5.48,0,0,0,2.11,7.84,54.3,54.3,0,0,0,33.16,4.92,53.52,53.52,0,0,0,16-5.38,5.48,5.48,0,0,0,2-7.84h0a5.51,5.51,0,0,0-7.17-1.83A42.58,42.58,0,0,1,60.86,107.86Z"/><path class="cls-2" d="M92.22,94.64h0a5.48,5.48,0,0,0,8-1.42c.65-1.06,1.26-2.15,1.83-3.26a5.55,5.55,0,0,0-1.47-6.91h0a5.45,5.45,0,0,0-8.19,1.74c-.46.89-1,1.77-1.48,2.63A5.5,5.5,0,0,0,92.22,94.64Z"/><circle class="cls-1" cx="53.94" cy="66.88" r="25.2"/><line class="cls-1" x1="53.94" y1="70.36" x2="140.59" y2="5.5"/><path class="cls-1" d="M54,75.86A5.5,5.5,0,0,1,50.65,66L137.3,1.09a5.5,5.5,0,0,1,6.59,8.81L57.24,74.76A5.49,5.49,0,0,1,54,75.86Z"/></g></g></svg>