<?xml version="1.0" encoding="utf-8"?>
<!-- Generator: Adobe Illustrator 24.0.2, SVG Export Plug-In . SVG Version: 6.00 Build 0)  -->
<svg version="1.1" id="Layer_1" xmlns="http://www.w3.org/2000/svg" xmlns:xlink="http://www.w3.org/1999/xlink" x="0px" y="0px"
	 viewBox="0 0 66.2 500" style="enable-background:new 0 0 66.2 500;" xml:space="preserve">
<style type="text/css">
	.st0{fill:#045A5E;}
	.st1{fill:#FFE031;}
	.st2{fill:none;stroke:#FFE031;stroke-miterlimit:10;}
	.st3{fill:#1D262D;}
</style>
<g>
	<title>object02</title>
	<g>
		<path class="st0" d="M19.5,322.7L19.5,322.7c1.5,0,2.7,1.2,2.7,2.7v16.5c0,1.5-1.2,2.7-2.7,2.7h0c-1.5,0-2.7-1.2-2.7-2.7v-16.5
			C16.9,323.9,18.1,322.7,19.5,322.7z"/>
		<path class="st0" d="M33.1,322.7L33.1,322.7c1.5,0,2.7,1.2,2.7,2.7v16.5c0,1.5-1.2,2.7-2.7,2.7h0c-1.5,0-2.7-1.2-2.7-2.7v-16.5
			C30.4,323.9,31.6,322.7,33.1,322.7z"/>
		<path class="st0" d="M46.6,322.7L46.6,322.7c1.5,0,2.7,1.2,2.7,2.7v16.5c0,1.5-1.2,2.7-2.7,2.7h0c-1.5,0-2.7-1.2-2.7-2.7v-16.5
			C44,323.9,45.1,322.7,46.6,322.7z"/>
		<path class="st0" d="M19.5,353.8L19.5,353.8c1.5,0,2.7,1.2,2.7,2.7V373c0,1.5-1.2,2.7-2.7,2.7h0c-1.5,0-2.7-1.2-2.7-2.7v-16.5
			C16.9,355,18.1,353.8,19.5,353.8z"/>
		<path class="st0" d="M33.1,353.8L33.1,353.8c1.5,0,2.7,1.2,2.7,2.7V373c0,1.5-1.2,2.7-2.7,2.7h0c-1.5,0-2.7-1.2-2.7-2.7v-16.5
			C30.4,355,31.6,353.8,33.1,353.8z"/>
		<path class="st0" d="M33.1,384.9L33.1,384.9c1.5,0,2.7,1.2,2.7,2.7v16.5c0,1.5-1.2,2.7-2.7,2.7h0c-1.5,0-2.7-1.2-2.7-2.7v-16.5
			C30.4,386.1,31.6,384.9,33.1,384.9z"/>
		<path class="st0" d="M46.6,384.9L46.6,384.9c1.5,0,2.7,1.2,2.7,2.7v16.5c0,1.5-1.2,2.7-2.7,2.7h0c-1.5,0-2.7-1.2-2.7-2.7v-16.5
			C44,386.1,45.1,384.9,46.6,384.9z"/>
		<path class="st0" d="M19.5,416L19.5,416c1.5,0,2.7,1.2,2.7,2.7v16.5c0,1.5-1.2,2.7-2.7,2.7h0c-1.5,0-2.7-1.2-2.7-2.7v-16.5
			C16.9,417.2,18.1,416,19.5,416z"/>
		<path class="st0" d="M46.6,416L46.6,416c1.5,0,2.7,1.2,2.7,2.7v16.5c0,1.5-1.2,2.7-2.7,2.7h0c-1.5,0-2.7-1.2-2.7-2.7v-16.5
			C44,417.2,45.1,416,46.6,416z"/>
		<path class="st0" d="M19.5,447.1L19.5,447.1c1.5,0,2.7,1.2,2.7,2.7v16.5c0,1.5-1.2,2.7-2.7,2.7h0c-1.5,0-2.7-1.2-2.7-2.7v-16.5
			C16.9,448.3,18.1,447.1,19.5,447.1z"/>
		<path class="st0" d="M33.1,447.1L33.1,447.1c1.5,0,2.7,1.2,2.7,2.7v16.5c0,1.5-1.2,2.7-2.7,2.7h0c-1.5,0-2.7-1.2-2.7-2.7v-16.5
			C30.4,448.3,31.6,447.1,33.1,447.1z"/>
		<path class="st0" d="M19.5,478.2L19.5,478.2c1.5,0,2.7,1.2,2.7,2.7v16.5c0,1.5-1.2,2.7-2.7,2.7h0c-1.5,0-2.7-1.2-2.7-2.7v-16.5
			C16.9,479.4,18.1,478.2,19.5,478.2z"/>
		<path class="st0" d="M33.1,478.2L33.1,478.2c1.5,0,2.7,1.2,2.7,2.7v16.5c0,1.5-1.2,2.7-2.7,2.7h0c-1.5,0-2.7-1.2-2.7-2.7v-16.5
			C30.4,479.4,31.6,478.2,33.1,478.2z"/>
		<path class="st0" d="M46.6,478.2L46.6,478.2c1.5,0,2.7,1.2,2.7,2.7v16.5c0,1.5-1.2,2.7-2.7,2.7h0c-1.5,0-2.7-1.2-2.7-2.7v-16.5
			C44,479.4,45.1,478.2,46.6,478.2z"/>
	</g>
	<g>
		<circle class="st1" cx="43.9" cy="104.1" r="4"/>
		<path class="st1" d="M18.3,104.1c0-2.2,1.8-4,4-4c2.2,0,4,1.8,4,4c0,2.2-1.8,4-4,4C20.1,108.2,18.3,106.4,18.3,104.1z"/>
		<circle class="st1" cx="43.9" cy="87.5" r="4"/>
		<path class="st2" d="M18.3,87.5c0-2.2,1.8-4,4-4c2.2,0,4,1.8,4,4s-1.8,4-4,4C20.1,91.5,18.3,89.7,18.3,87.5z"/>
		<circle class="st3" cx="43.9" cy="70.8" r="4"/>
		<path class="st2" d="M18.3,70.8c0-2.2,1.8-4,4-4c2.2,0,4,1.8,4,4s-1.8,4-4,4C20.1,74.8,18.3,73,18.3,70.8z"/>
		<circle class="st3" cx="43.9" cy="54.1" r="4"/>
		<path class="st2" d="M18.3,54.1c0-2.2,1.8-4,4-4c2.2,0,4,1.8,4,4c0,2.2-1.8,4-4,4C20.1,58.1,18.3,56.3,18.3,54.1z"/>
		<path class="st3" d="M39.9,37.4c0-2.2,1.8-4,4-4c2.2,0,4,1.8,4,4c0,2.2-1.8,4-4,4C41.7,41.4,39.9,39.6,39.9,37.4z"/>
		<path class="st2" d="M18.3,37.4c0-2.2,1.8-4,4-4c2.2,0,4,1.8,4,4c0,2.2-1.8,4-4,4C20.1,41.4,18.3,39.6,18.3,37.4z"/>
		<path class="st1" d="M39.9,20.7c0-2.2,1.8-4,4-4c2.2,0,4,1.8,4,4c0,2.2-1.8,4-4,4C41.7,24.7,39.9,22.9,39.9,20.7z"/>
		<path class="st2" d="M18.3,20.7c0-2.2,1.8-4,4-4c2.2,0,4,1.8,4,4c0,2.2-1.8,4-4,4C20.1,24.7,18.3,22.9,18.3,20.7z"/>
		<path class="st1" d="M39.9,4c0-2.2,1.8-4,4-4c2.2,0,4,1.8,4,4c0,2.2-1.8,4-4,4C41.7,8.1,39.9,6.3,39.9,4z"/>
		<path class="st1" d="M18.3,4c0-2.2,1.8-4,4-4c2.2,0,4,1.8,4,4c0,2.2-1.8,4-4,4C20.1,8.1,18.3,6.3,18.3,4z"/>
	</g>
</g>
</svg>
