<svg xmlns="http://www.w3.org/2000/svg" xmlns:xlink="http://www.w3.org/1999/xlink" viewBox="0 0 260.22 233.5"><defs><style>.cls-1,.cls-2,.cls-3,.cls-8,.cls-9{fill:none;}.cls-2{stroke:#1d1d1b;stroke-width:1.44px;}.cls-3,.cls-9{stroke:#8bd2bd;stroke-width:2px;}.cls-3,.cls-8,.cls-9{stroke-miterlimit:10;}.cls-4{fill:#f7c9bd;}.cls-5{opacity:0.22;fill:url(#_10_lpp_20_);}.cls-6{fill:#f39475;}.cls-7{fill:#e74a5f;}.cls-8{stroke:#e74a5f;}.cls-9{stroke-linecap:square;}</style><pattern id="_10_lpp_20_" data-name="10 lpp 20%" width="72" height="72" patternTransform="translate(-135.55 -9.1) rotate(-90) scale(1.13)" patternUnits="userSpaceOnUse" viewBox="0 0 72 72"><rect class="cls-1" width="72" height="72"/><line class="cls-2" x1="71.75" y1="68.4" x2="144.25" y2="68.4"/><line class="cls-2" x1="71.75" y1="54" x2="144.25" y2="54"/><line class="cls-2" x1="71.75" y1="39.6" x2="144.25" y2="39.6"/><line class="cls-2" x1="71.75" y1="25.2" x2="144.25" y2="25.2"/><line class="cls-2" x1="71.75" y1="10.8" x2="144.25" y2="10.8"/><line class="cls-2" x1="71.75" y1="61.2" x2="144.25" y2="61.2"/><line class="cls-2" x1="71.75" y1="46.8" x2="144.25" y2="46.8"/><line class="cls-2" x1="71.75" y1="32.4" x2="144.25" y2="32.4"/><line class="cls-2" x1="71.75" y1="18" x2="144.25" y2="18"/><line class="cls-2" x1="71.75" y1="3.6" x2="144.25" y2="3.6"/><line class="cls-2" x1="-0.25" y1="68.4" x2="72.25" y2="68.4"/><line class="cls-2" x1="-0.25" y1="54" x2="72.25" y2="54"/><line class="cls-2" x1="-0.25" y1="39.6" x2="72.25" y2="39.6"/><line class="cls-2" x1="-0.25" y1="25.2" x2="72.25" y2="25.2"/><line class="cls-2" x1="-0.25" y1="10.8" x2="72.25" y2="10.8"/><line class="cls-2" x1="-0.25" y1="61.2" x2="72.25" y2="61.2"/><line class="cls-2" x1="-0.25" y1="46.8" x2="72.25" y2="46.8"/><line class="cls-2" x1="-0.25" y1="32.4" x2="72.25" y2="32.4"/><line class="cls-2" x1="-0.25" y1="18" x2="72.25" y2="18"/><line class="cls-2" x1="-0.25" y1="3.6" x2="72.25" y2="3.6"/><line class="cls-2" x1="-72.25" y1="68.4" x2="0.25" y2="68.4"/><line class="cls-2" x1="-72.25" y1="54" x2="0.25" y2="54"/><line class="cls-2" x1="-72.25" y1="39.6" x2="0.25" y2="39.6"/><line class="cls-2" x1="-72.25" y1="25.2" x2="0.25" y2="25.2"/><line class="cls-2" x1="-72.25" y1="10.8" x2="0.25" y2="10.8"/><line class="cls-2" x1="-72.25" y1="61.2" x2="0.25" y2="61.2"/><line class="cls-2" x1="-72.25" y1="46.8" x2="0.25" y2="46.8"/><line class="cls-2" x1="-72.25" y1="32.4" x2="0.25" y2="32.4"/><line class="cls-2" x1="-72.25" y1="18" x2="0.25" y2="18"/><line class="cls-2" x1="-72.25" y1="3.6" x2="0.25" y2="3.6"/></pattern></defs><title>object2</title><g id="Layer_2" data-name="Layer 2"><g id="BACKGROUND"><rect class="cls-3" x="1" y="165.11" width="56.76" height="56.76"/><rect class="cls-4" x="29.38" y="136.73" width="56.76" height="56.76"/><rect class="cls-5" x="57.76" y="108.35" width="56.76" height="56.76"/><path class="cls-6" d="M255.62,103.91a4,4,0,1,1,4-4A4,4,0,0,1,255.62,103.91Z"/><path class="cls-6" d="M255.62,125.51a4,4,0,1,1,4-4A4,4,0,0,1,255.62,125.51Z"/><path class="cls-6" d="M255.62,147.1a4,4,0,1,1,4-4A4,4,0,0,1,255.62,147.1Z"/><path class="cls-7" d="M255.62,168.7a4,4,0,1,1,4-4A4,4,0,0,1,255.62,168.7Z"/><path class="cls-6" d="M255.62,190.3a4,4,0,1,1,4-4A4,4,0,0,1,255.62,190.3Z"/><path class="cls-6" d="M255.62,211.9a4,4,0,1,1,4-4A4,4,0,0,1,255.62,211.9Z"/><path class="cls-7" d="M255.62,233.5a4,4,0,1,1,4-4A4,4,0,0,1,255.62,233.5Z"/><circle class="cls-6" cx="238.94" cy="99.88" r="4.03"/><path class="cls-8" d="M238.94,125.51a4,4,0,1,1,4-4A4,4,0,0,1,238.94,125.51Z"/><circle class="cls-6" cx="238.94" cy="143.08" r="4.03"/><circle class="cls-6" cx="238.94" cy="164.68" r="4.03"/><path class="cls-6" d="M238.94,190.3a4,4,0,1,1,4-4A4,4,0,0,1,238.94,190.3Z"/><circle class="cls-8" cx="238.94" cy="207.88" r="4.03"/><circle class="cls-6" cx="238.94" cy="229.47" r="4.03"/><circle class="cls-6" cx="222.25" cy="99.88" r="4.03"/><path class="cls-6" d="M222.25,125.51a4,4,0,1,1,4-4A4,4,0,0,1,222.25,125.51Z"/><circle class="cls-6" cx="222.25" cy="143.08" r="4.03"/><circle class="cls-6" cx="222.25" cy="164.68" r="4.03"/><path class="cls-7" d="M222.25,190.3a4,4,0,1,1,4-4A4,4,0,0,1,222.25,190.3Z"/><circle class="cls-6" cx="222.25" cy="207.88" r="4.03"/><circle class="cls-6" cx="222.25" cy="229.47" r="4.03"/><circle class="cls-6" cx="205.56" cy="99.88" r="4.03"/><path class="cls-7" d="M205.56,125.51a4,4,0,1,1,4-4A4,4,0,0,1,205.56,125.51Z"/><circle class="cls-6" cx="205.56" cy="143.08" r="4.03"/><circle class="cls-8" cx="205.56" cy="164.68" r="4.03"/><path class="cls-6" d="M205.56,190.3a4,4,0,1,1,4-4A4,4,0,0,1,205.56,190.3Z"/><circle class="cls-6" cx="205.56" cy="207.88" r="4.03"/><circle class="cls-6" cx="205.56" cy="229.47" r="4.03"/><circle class="cls-8" cx="188.88" cy="99.88" r="4.03"/><path class="cls-6" d="M188.88,125.51a4,4,0,1,1,4-4A4,4,0,0,1,188.88,125.51Z"/><circle class="cls-6" cx="188.88" cy="143.08" r="4.03"/><circle class="cls-6" cx="188.88" cy="164.68" r="4.03"/><path class="cls-6" d="M188.88,190.3a4,4,0,1,1,4-4A4,4,0,0,1,188.88,190.3Z"/><circle class="cls-6" cx="188.88" cy="207.88" r="4.03"/><circle class="cls-6" cx="188.88" cy="229.47" r="4.03"/><rect class="cls-3" x="112.48" y="11" width="12.13" height="12.13"/><rect class="cls-3" x="134.91" y="11" width="12.13" height="12.13"/><rect class="cls-3" x="157.35" y="11" width="12.13" height="12.13"/><rect class="cls-3" x="179.78" y="11" width="12.13" height="12.13"/><rect class="cls-3" x="202.22" y="11" width="12.13" height="12.13"/><rect class="cls-3" x="224.65" y="11" width="12.13" height="12.13"/><rect class="cls-3" x="247.09" y="11" width="12.13" height="12.13"/><rect class="cls-3" x="112.48" y="30.79" width="12.13" height="12.13"/><rect class="cls-3" x="134.91" y="30.79" width="12.13" height="12.13"/><rect class="cls-3" x="157.35" y="30.79" width="12.13" height="12.13"/><rect class="cls-3" x="179.78" y="30.79" width="12.13" height="12.13"/><rect class="cls-3" x="202.22" y="30.79" width="12.13" height="12.13"/><rect class="cls-3" x="224.65" y="30.79" width="12.13" height="12.13"/><rect class="cls-3" x="247.09" y="30.79" width="12.13" height="12.13"/><line class="cls-9" x1="112.48" y1="1" x2="124.61" y2="1"/><line class="cls-9" x1="134.91" y1="1" x2="147.04" y2="1"/></g></g></svg>