<?xml version="1.0" encoding="utf-8"?>
<!-- Generator: Adobe Illustrator 24.0.2, SVG Export Plug-In . SVG Version: 6.00 Build 0)  -->
<svg version="1.1" id="Layer_1" xmlns="http://www.w3.org/2000/svg" xmlns:xlink="http://www.w3.org/1999/xlink" x="0px" y="0px"
	 viewBox="0 0 82.7 81.9" style="enable-background:new 0 0 82.7 81.9;" xml:space="preserve">
<style type="text/css">
	.st0{opacity:0.3;fill:#045A5E;enable-background:new    ;}
	.st1{opacity:0.4;fill:#E34C25;enable-background:new    ;}
	.st2{opacity:0.3;fill:#E34C25;enable-background:new    ;}
</style>
<title>object01_1</title>
<g id="Layer_2_1_">
	<g id="a6dc9487-50e2-4fb9-af91-bf1b7118d463">
		<path class="st0" d="M41.6,21.2c7-0.2,13.7,3.9,17.1,9.9c5.1,8.9,2.5,21-5.3,26.5c-10.7,7.6-28.3,0.9-31.5-11.2
			C18.9,34.9,29.4,21.5,41.6,21.2z"/>
		<path class="st1" d="M116,341.2c7.6-6.3,18.7-7.5,27.7-3.9c13.5,5.4,21.1,21.2,17.2,34.2c-5.4,17.8-30.8,25.6-44.9,14.9
			C102.7,376.3,102.8,352.2,116,341.2z"/>
		<path class="st2" d="M-24,114.6C12,84.8,64.3,79,107,96.2c63.8,25.7,99.7,100.1,81.2,161.5C162.9,341.6,42.6,378.7-24,328.3
			C-86.9,280.5-86.5,166.4-24,114.6z"/>
	</g>
</g>
</svg>
