<?xml version="1.0" encoding="utf-8"?>
<!-- Generator: Adobe Illustrator 24.1.1, SVG Export Plug-In . SVG Version: 6.00 Build 0)  -->
<svg version="1.1" id="e9df7128-f90d-48f2-af2a-c80f8452c1a7"
	 xmlns="http://www.w3.org/2000/svg" xmlns:xlink="http://www.w3.org/1999/xlink" x="0px" y="0px" viewBox="0 0 1920 420"
	 style="enable-background:new 0 0 1920 420;" xml:space="preserve">
<style type="text/css">
	.st0{fill:#F7F7F7;}
	.st1{fill:#F5F5F5;}
	.st2{fill:url(#SVGID_1_);}
	.st3{fill:#FFFFFF;}
	.st4{fill:#FF5252;}
	.st5{fill:#FFFF00;}
	.st6{fill:#69F0AE;}
	.st7{fill:#A3B2C7;}
	.st8{fill:url(#SVGID_2_);}
	.st9{fill:url(#SVGID_3_);}
	.st10{fill:url(#SVGID_4_);}
	.st11{fill:url(#SVGID_5_);}
	.st12{fill:url(#SVGID_6_);}
	.st13{fill:#FFFFFF;stroke:#FFFFFF;stroke-miterlimit:10;}
	.st14{opacity:0.1;enable-background:new    ;}
	.st15{fill:#BDBDBD;}
	.st16{fill:#E0E0E0;}
	.st17{fill:#64FFDA;}
	.st18{fill:url(#SVGID_7_);}
	.st19{fill:url(#SVGID_8_);}
	.st20{fill:url(#SVGID_9_);}
	.st21{fill:url(#SVGID_10_);}
	.st22{fill:url(#SVGID_11_);}
	.st23{fill:url(#SVGID_12_);}
	.st24{fill:url(#SVGID_13_);}
	.st25{fill:url(#SVGID_14_);}
	.st26{fill:url(#SVGID_15_);}
	.st27{fill:url(#SVGID_16_);}
	.st28{fill:#2196F3;}
	.st29{fill:url(#SVGID_17_);}
	.st30{fill:url(#SVGID_18_);}
</style>
<rect class="st0" width="1920" height="420"/>
<g>
	<rect x="1129.2" y="196.8" class="st1" width="593.7" height="293"/>
	
		<linearGradient id="SVGID_1_" gradientUnits="userSpaceOnUse" x1="1425.7875" y1="1155.11" x2="1425.7875" y2="854.9938" gradientTransform="matrix(1 0 0 1 0 -658.51)">
		<stop  offset="0" style="stop-color:#808080;stop-opacity:0.25"/>
		<stop  offset="0.54" style="stop-color:#808080;stop-opacity:0.12"/>
		<stop  offset="1" style="stop-color:#808080;stop-opacity:0.1"/>
	</linearGradient>
	<rect x="1125.2" y="196.5" class="st2" width="601.3" height="300.1"/>
	<rect x="1129.2" y="226.4" class="st3" width="593.7" height="263.2"/>
	<circle class="st4" cx="1143.3" cy="211" r="7.4"/>
	<circle class="st5" cx="1165.9" cy="211" r="7.4"/>
	<circle class="st6" cx="1188.3" cy="211" r="7.4"/>
	<rect x="1129.2" y="226" class="st7" width="156.3" height="263.6"/>
	
		<linearGradient id="SVGID_2_" gradientUnits="userSpaceOnUse" x1="1366.2118" y1="1110.8069" x2="1366.2118" y2="1034.134" gradientTransform="matrix(1 0 0 1 -158.75 -765.25)">
		<stop  offset="0" style="stop-color:#000000;stop-opacity:0.12"/>
		<stop  offset="0.55" style="stop-color:#000000;stop-opacity:9.000000e-02"/>
		<stop  offset="1" style="stop-color:#000000;stop-opacity:2.000000e-02"/>
	</linearGradient>
	<path class="st8" d="M1249,308.4c0-21.8-18.6-39.6-41.6-39.6s-41.6,17.7-41.6,39.6c0,17.2,11.5,31.7,27.5,37.2v-10.2
		c0-7.4,6.4-13.4,14.1-13.4l0,0c7.7,0,14.1,6,14.1,13.4v10.2C1237.6,340.1,1249,325.5,1249,308.4z"/>
	
		<linearGradient id="SVGID_3_" gradientUnits="userSpaceOnUse" x1="1207.4617" y1="991.1431" x2="1207.4617" y2="974.3929" gradientTransform="matrix(1 0 0 1 0 -658.51)">
		<stop  offset="0" style="stop-color:#000000;stop-opacity:0.12"/>
		<stop  offset="0.55" style="stop-color:#000000;stop-opacity:9.000000e-02"/>
		<stop  offset="1" style="stop-color:#000000;stop-opacity:2.000000e-02"/>
	</linearGradient>
	<path class="st9" d="M1207.2,315.9h0.6c1.2,0,2.2,1,2.2,2.2v12.4c0,1.2-1,2.2-2.2,2.2h-0.6c-1.2,0-2.2-1-2.2-2.2V318
		C1205,316.9,1206,315.9,1207.2,315.9z"/>
	
		<linearGradient id="SVGID_4_" gradientUnits="userSpaceOnUse" x1="1207.4615" y1="976.6437" x2="1207.4615" y2="946.2789" gradientTransform="matrix(1 0 0 1 0 -658.51)">
		<stop  offset="0" style="stop-color:#000000;stop-opacity:0.12"/>
		<stop  offset="0.55" style="stop-color:#000000;stop-opacity:9.000000e-02"/>
		<stop  offset="1" style="stop-color:#000000;stop-opacity:2.000000e-02"/>
	</linearGradient>
	<ellipse class="st10" cx="1207.5" cy="302.9" rx="16" ry="15.1"/>
	
		<linearGradient id="SVGID_5_" gradientUnits="userSpaceOnUse" x1="1366.2117" y1="1113.1302" x2="1366.2117" y2="1087.2571" gradientTransform="matrix(1 0 0 1 -158.75 -765.25)">
		<stop  offset="0" style="stop-color:#000000;stop-opacity:0.12"/>
		<stop  offset="0.55" style="stop-color:#000000;stop-opacity:9.000000e-02"/>
		<stop  offset="1" style="stop-color:#000000;stop-opacity:2.000000e-02"/>
	</linearGradient>
	<path class="st11" d="M1207.5,322L1207.5,322c-7.7,0-14.1,6-14.1,13.4v10.2c9.2,3.1,19,3.1,28.2,0v-10.2
		C1221.6,328.1,1215.2,322,1207.5,322z"/>
	
		<linearGradient id="SVGID_6_" gradientUnits="userSpaceOnUse" x1="1366.1852" y1="1069.9554" x2="1366.1852" y2="1041.4924" gradientTransform="matrix(1 0 0 1 -158.75 -765.25)">
		<stop  offset="0" style="stop-color:#000000;stop-opacity:0.12"/>
		<stop  offset="0.55" style="stop-color:#000000;stop-opacity:9.000000e-02"/>
		<stop  offset="1" style="stop-color:#000000;stop-opacity:2.000000e-02"/>
	</linearGradient>
	<path class="st12" d="M1191.3,302c-1.3-2.3-1.9-4.9-1.7-7.7c0.1-2.6,1.5-5.2,3.5-7c2.3-1.9,5.5-2.6,8.6-2.8
		c3.1-0.1,6.1-0.1,9.2-0.6c4.9-0.9,9.3-3.8,12.2-7.9c0.3,2.2,0.3,4.5,0,6.7c-0.4,2.3-1.7,4.2-3.6,5.5c2.5-1,2.2,1.5,1.6,2.9
		c1.2,1.5,4.1,1.6,4.2,3.3c0.3,1.7,0,3.6-0.6,5.2c-0.7,1.6,0,4.5-1.9,4.7"/>
	<path class="st7" d="M1246.9,302.6c0-21.8-17.7-39.6-39.6-39.6s-39.6,17.7-39.6,39.6c0,16.7,10.5,31.6,26.2,37.2v-10.2
		c0-7.4,6-13.4,13.4-13.4l0,0c7.4,0,13.4,6,13.4,13.4v10.2C1236.5,334,1246.9,319.2,1246.9,302.6z"/>
	<path class="st13" d="M1207.3,310h0.3c1.2,0,2.2,1,2.2,2.2v12.4c0,1.2-1,2.2-2.2,2.2h-0.3c-1.2,0-2.2-1-2.2-2.2v-12.4
		C1205,311.1,1206,310,1207.3,310z"/>
	<circle class="st13" cx="1207.5" cy="297.1" r="15.1"/>
	<path class="st13" d="M1207.5,316.2L1207.5,316.2c-7.4,0-13.4,6-13.4,13.4v10.2c8.6,3.1,18,3.1,26.8,0v-10.2
		C1220.8,322.3,1214.9,316.2,1207.5,316.2z"/>
	<path class="st13" d="M1192,296.2c-1.2-2.3-1.7-4.9-1.6-7.7c0.1-2.6,1.5-5.1,3.3-7c2.2-1.9,5.2-2.6,8.1-2.8
		c2.9-0.3,5.8-0.1,8.7-0.6c4.8-1,8.9-3.8,11.6-7.9c0.3,2.2,0.3,4.5,0,6.7c-0.3,2.2-1.6,4.2-3.5,5.5c2.3-1,2,1.5,1.6,2.9
		c1.2,1.5,3.9,1.6,4.1,3.3c0.3,1.7,0,3.6-0.6,5.2c-0.7,1.6,0,4.5-1.7,4.7"/>
	<path class="st3" d="M1219.5,282.3c0,0,10.6,0.9,3.1,16.7"/>
	<rect x="1128.8" y="357.9" class="st14" width="156.3" height="131.4"/>
	<rect x="1158.8" y="386.1" class="st3" width="76.5" height="7.4"/>
	<rect x="1344.1" y="270.5" class="st15" width="76.5" height="7.4"/>
	<rect x="1344.1" y="315.4" class="st16" width="273.5" height="7.4"/>
	<rect x="1344.1" y="360.4" class="st16" width="273.5" height="7.4"/>
	<rect x="1344.1" y="405.3" class="st17" width="76.5" height="7.4"/>
	<rect x="1442.3" y="405.3" class="st1" width="76.5" height="7.4"/>
	<rect x="1541.3" y="405.3" class="st17" width="76.5" height="7.4"/>
	<rect x="1158.8" y="403.5" class="st3" width="94.8" height="7.4"/>
</g>
<g>
	
		<rect x="1053" y="-4.1" transform="matrix(0.9956 -9.413122e-02 9.413122e-02 0.9956 -11.2898 136.58)" class="st1" width="778.3" height="384.1"/>
	
		<linearGradient id="SVGID_7_" gradientUnits="userSpaceOnUse" x1="717.3488" y1="1264.6399" x2="717.3488" y2="871.2393" gradientTransform="matrix(0.9956 -9.413242e-02 9.413242e-02 0.9956 627.2347 -803.3205)">
		<stop  offset="0" style="stop-color:#808080;stop-opacity:0.25"/>
		<stop  offset="0.54" style="stop-color:#808080;stop-opacity:0.12"/>
		<stop  offset="1" style="stop-color:#808080;stop-opacity:0.1"/>
	</linearGradient>
	<polygon class="st18" points="1031.2,33.6 1815.7,-40.6 1852.8,351.1 1068.1,425.3 	"/>
	
		<rect x="1054.7" y="34.6" transform="matrix(0.9956 -9.413122e-02 9.413122e-02 0.9956 -13.0885 136.8252)" class="st3" width="778.3" height="345"/>
	<ellipse transform="matrix(0.6393 -0.769 0.769 0.6393 342.713 828.9833)" class="st0" cx="1055" cy="49.2" rx="9.7" ry="9.8"/>
	
		<ellipse transform="matrix(0.6377 -0.7703 0.7703 0.6377 356.8375 853.8315)" class="st0" cx="1086.1" cy="47.6" rx="9.7" ry="9.8"/>
	
		<ellipse transform="matrix(0.6377 -0.7703 0.7703 0.6377 369.6368 875.3771)" class="st0" cx="1115.4" cy="44.7" rx="9.7" ry="9.8"/>
	
		<rect x="1056" y="61.2" transform="matrix(0.9956 -9.413122e-02 9.413122e-02 0.9956 -16.8836 110.0824)" class="st7" width="204.9" height="345.6"/>
	
		<linearGradient id="SVGID_8_" gradientUnits="userSpaceOnUse" x1="431.2261" y1="1066.5726" x2="431.2261" y2="966.0327" gradientTransform="matrix(0.9956 -9.413242e-02 9.413242e-02 0.9956 627.2343 -803.3182)">
		<stop  offset="0" style="stop-color:#000000;stop-opacity:0.12"/>
		<stop  offset="0.55" style="stop-color:#000000;stop-opacity:9.000000e-02"/>
		<stop  offset="1" style="stop-color:#000000;stop-opacity:2.000000e-02"/>
	</linearGradient>
	<path class="st19" d="M1206.6,164.4c-2.8-28.5-29.2-49.2-59.1-46.5c-29.9,2.7-52.1,28.3-49.4,56.8c2.1,22.4,18.8,40,40.5,45.2
		l-1.2-13.4c-0.8-9.6,6.6-18.2,16.7-19.2l0,0c10-1,19.1,6,19.9,15.7l1.2,13.4C1195.6,207.2,1208.7,186.6,1206.6,164.4z"/>
	
		<linearGradient id="SVGID_9_" gradientUnits="userSpaceOnUse" x1="431.1935" y1="1049.6133" x2="431.1935" y2="1027.6559" gradientTransform="matrix(0.9956 -9.413242e-02 9.413242e-02 0.9956 627.2355 -803.3227)">
		<stop  offset="0" style="stop-color:#000000;stop-opacity:0.12"/>
		<stop  offset="0.55" style="stop-color:#000000;stop-opacity:9.000000e-02"/>
		<stop  offset="1" style="stop-color:#000000;stop-opacity:2.000000e-02"/>
	</linearGradient>
	<path class="st20" d="M1152.9,179.2l0.8-0.1c1.6-0.1,3.1,1.1,3.2,2.7l1.5,16.1c0.1,1.6-1.1,3.1-2.7,3.2l-0.8,0.1
		c-1.6,0.1-3.1-1.1-3.2-2.7l-1.5-16.1C1150.1,180.9,1151.3,179.3,1152.9,179.2z"/>
	
		<linearGradient id="SVGID_10_" gradientUnits="userSpaceOnUse" x1="431.2201" y1="1030.6067" x2="431.2201" y2="990.8027" gradientTransform="matrix(0.9956 -9.413242e-02 9.413242e-02 0.9956 627.2336 -803.3228)">
		<stop  offset="0" style="stop-color:#000000;stop-opacity:0.12"/>
		<stop  offset="0.55" style="stop-color:#000000;stop-opacity:9.000000e-02"/>
		<stop  offset="1" style="stop-color:#000000;stop-opacity:2.000000e-02"/>
	</linearGradient>
	<path class="st21" d="M1149.8,142.5c11.6-1.1,21.6,6.9,22.8,17.9c1,11-7.5,20.8-19.1,21.8c-11.6,1.1-21.6-6.9-22.8-17.9
		C1129.8,153.3,1138.4,143.6,1149.8,142.5z"/>
	
		<linearGradient id="SVGID_11_" gradientUnits="userSpaceOnUse" x1="431.2475" y1="1069.5961" x2="431.2475" y2="1035.6523" gradientTransform="matrix(0.9956 -9.413242e-02 9.413242e-02 0.9956 627.2343 -803.3182)">
		<stop  offset="0" style="stop-color:#000000;stop-opacity:0.12"/>
		<stop  offset="0.55" style="stop-color:#000000;stop-opacity:9.000000e-02"/>
		<stop  offset="1" style="stop-color:#000000;stop-opacity:2.000000e-02"/>
	</linearGradient>
	<path class="st22" d="M1154.1,187.2L1154.1,187.2c-10,1-17.5,9.5-16.7,19.2l1.2,13.4c12.3,2.9,25.2,1.7,36.8-3.5l-1.2-13.4
		C1173.1,193.4,1164.1,186.2,1154.1,187.2z"/>
	
		<linearGradient id="SVGID_12_" gradientUnits="userSpaceOnUse" x1="431.362" y1="1013.0331" x2="431.362" y2="975.7124" gradientTransform="matrix(0.9956 -9.413242e-02 9.413242e-02 0.9956 627.2343 -803.3182)">
		<stop  offset="0" style="stop-color:#000000;stop-opacity:0.12"/>
		<stop  offset="0.55" style="stop-color:#000000;stop-opacity:9.000000e-02"/>
		<stop  offset="1" style="stop-color:#000000;stop-opacity:2.000000e-02"/>
	</linearGradient>
	<path class="st23" d="M1130.6,163.1c-2-2.9-3-6.3-3.1-9.8c-0.2-3.5,1.2-6.9,3.8-9.4c2.8-2.8,6.9-4,10.9-4.7s8.1-0.9,11.8-2
		c6.3-1.8,11.7-6.1,15-11.7c0.7,2.8,0.9,5.8,0.8,8.7c-0.1,3.1-1.8,5.7-4,7.6c3-1.6,3,1.5,2.5,3.5c1.8,1.7,5.5,1.5,5.9,3.9
		c0.6,2.2,0.5,4.7-0.2,6.9c-0.8,2.2,0.7,5.9-1.9,6.3"/>
	<path class="st7" d="M1203.2,157c-2.8-28.5-28-49.4-56.5-46.6s-49.4,28-46.6,56.5c2,21.6,17.5,39.8,38.8,45.2l-1.2-13.4
		c-0.8-9.6,6.2-18.1,15.7-19.1l0,0c9.6-0.8,18.1,6.2,19.1,15.7l1.2,13.4C1193.3,199.4,1205.3,178.7,1203.2,157z"/>
	<path class="st13" d="M1152.3,171.6l0.4-0.1c1.6-0.1,3.1,1.1,3.2,2.7l1.5,16.1c0.1,1.6-1.1,3.1-2.7,3.2l-0.4,0.1
		c-1.6,0.1-3.1-1.1-3.2-2.7l-1.5-16.1C1149.5,173.2,1150.7,171.9,1152.3,171.6z"/>
	
		<ellipse transform="matrix(0.1714 -0.9852 0.9852 0.1714 801.2784 1262.1371)" class="st13" cx="1151" cy="154.7" rx="19.8" ry="19.8"/>
	<path class="st13" d="M1153.2,179.7L1153.2,179.7c-9.7,1-16.7,9.5-15.7,19.1l1.2,13.4c11.7,3,24.1,1.9,34.8-3.2l-1.2-13.4
		C1171.5,185.7,1162.9,178.8,1153.2,179.7z"/>
	<path class="st13" d="M1130.9,155.5c-1.8-2.8-3-6.3-3.1-9.8c-0.2-3.5,1.2-6.9,3.6-9.4c2.6-2.6,6.5-3.9,10.3-4.6
		c3.8-0.7,7.7-0.8,11.2-1.9c6.1-1.8,11.1-6,14.2-11.6c0.7,2.8,0.9,5.8,0.8,8.7s-1.6,5.7-3.8,7.6c2.8-1.6,2.8,1.6,2.4,3.7
		c1.6,1.6,5.3,1.7,5.7,3.9c0.6,2.2,0.5,4.7,0,7c-0.8,2.2,0.7,5.9-1.7,6.3"/>
	<path class="st3" d="M1165.1,133.9c0,0,13.9-0.1,6,21.4"/>
	
		<rect x="1063.5" y="233.6" transform="matrix(0.9956 -9.413122e-02 9.413122e-02 0.9956 -24.9239 111.1712)" class="st14" width="204.9" height="172.3"/>
	
		<rect x="1098.8" y="272.2" transform="matrix(0.9956 -9.413122e-02 9.413122e-02 0.9956 -20.9748 109.3763)" class="st3" width="100.3" height="9.7"/>
	
		<rect x="1100.8" y="293.8" transform="matrix(0.9956 -9.413122e-02 9.413122e-02 0.9956 -22.9468 110.7927)" class="st3" width="124.3" height="9.7"/>
	
		<rect x="1284" y="63" transform="matrix(0.9956 -9.413122e-02 9.413122e-02 0.9956 -3.3324 128.2863)" class="st1" width="148.3" height="73"/>
	
		<rect x="1290.7" y="133.4" transform="matrix(0.9956 -9.413122e-02 9.413122e-02 0.9956 -9.9318 129.2278)" class="st16" width="148.3" height="73"/>
	
		<rect x="1634.5" y="29.7" transform="matrix(0.9956 -9.413122e-02 9.413122e-02 0.9956 1.353 161.1332)" class="st1" width="148.3" height="73"/>
	
		<rect x="1641.2" y="100.3" transform="matrix(0.9956 -9.413122e-02 9.413122e-02 0.9956 -5.264 162.0772)" class="st16" width="148.3" height="73"/>
	
		<rect x="1458.9" y="46.3" transform="matrix(0.9956 -9.413122e-02 9.413122e-02 0.9956 -0.9906 144.6719)" class="st1" width="148.3" height="73"/>
	
		<rect x="1465.4" y="117" transform="matrix(0.9956 -9.413122e-02 9.413122e-02 0.9956 -7.6101 145.5978)" class="st16" width="148.3" height="73"/>
	
		<rect x="1296" y="227" transform="matrix(0.9958 -9.207905e-02 9.207905e-02 0.9958 -18.4233 127.248)" class="st16" width="147.5" height="72.6"/>
	
		<rect x="1306.3" y="298.4" transform="matrix(0.9956 -9.413122e-02 9.413122e-02 0.9956 -25.3968 131.4305)" class="st15" width="148.3" height="73"/>
	
		<rect x="1650.1" y="194.8" transform="matrix(0.9956 -9.413122e-02 9.413122e-02 0.9956 -14.112 163.3362)" class="st1" width="148.3" height="73"/>
	
		<rect x="1656.8" y="265.4" transform="matrix(0.9956 -9.413122e-02 9.413122e-02 0.9956 -20.7292 164.28)" class="st15" width="148.3" height="73"/>
	
		<rect x="1474.3" y="211.4" transform="matrix(0.9956 -9.413122e-02 9.413122e-02 0.9956 -16.4581 146.8568)" class="st1" width="148.3" height="73"/>
	
		<rect x="1481" y="282" transform="matrix(0.9956 -9.413122e-02 9.413122e-02 0.9956 -23.0753 147.8009)" class="st15" width="148.3" height="73"/>
	
		<linearGradient id="SVGID_13_" gradientUnits="userSpaceOnUse" x1="574.029" y1="1003.1113" x2="606.731" y2="1003.1113" gradientTransform="matrix(0.9956 -9.413242e-02 9.413242e-02 0.9956 627.2313 -803.3205)">
		<stop  offset="0" style="stop-color:#000000;stop-opacity:9.000000e-02"/>
		<stop  offset="0.55" style="stop-color:#000000;stop-opacity:7.000000e-02"/>
		<stop  offset="1" style="stop-color:#000000;stop-opacity:2.000000e-02"/>
	</linearGradient>
	<path class="st24" d="M1307.9,124.5c9-0.8,16.9,5.3,17.7,13.7c0.8,8.5-5.8,15.8-14.9,16.8c-9.1,0.9-16.9-5.3-17.7-13.7
		C1292.3,132.9,1299.1,125.3,1307.9,124.5z"/>
	
		<ellipse transform="matrix(0.1714 -0.9852 0.9852 0.1714 946.4156 1400.8169)" class="st7" cx="1306" cy="137.8" rx="14.1" ry="14.1"/>
	
		<linearGradient id="SVGID_14_" gradientUnits="userSpaceOnUse" x1="747.3372" y1="1003.0121" x2="780.0391" y2="1003.0121" gradientTransform="matrix(0.9956 -9.413242e-02 9.413242e-02 0.9956 627.2392 -803.3226)">
		<stop  offset="0" style="stop-color:#000000;stop-opacity:9.000000e-02"/>
		<stop  offset="0.55" style="stop-color:#000000;stop-opacity:7.000000e-02"/>
		<stop  offset="1" style="stop-color:#000000;stop-opacity:2.000000e-02"/>
	</linearGradient>
	<path class="st25" d="M1480.4,108.1c9-0.8,16.9,5.3,17.7,13.7c0.8,8.5-5.8,15.8-14.9,16.8c-9,0.8-16.9-5.3-17.7-13.7
		C1464.8,116.6,1471.6,109.1,1480.4,108.1z"/>
	
		<ellipse transform="matrix(0.1714 -0.9852 0.9852 0.1714 1107.3367 1561.2556)" class="st7" cx="1481.9" cy="122.3" rx="14.1" ry="14.1"/>
	
		<linearGradient id="SVGID_15_" gradientUnits="userSpaceOnUse" x1="926.1091" y1="1003.0332" x2="958.811" y2="1003.0332" gradientTransform="matrix(0.9956 -9.413242e-02 9.413242e-02 0.9956 627.2328 -803.3247)">
		<stop  offset="0" style="stop-color:#000000;stop-opacity:9.000000e-02"/>
		<stop  offset="0.55" style="stop-color:#000000;stop-opacity:7.000000e-02"/>
		<stop  offset="1" style="stop-color:#000000;stop-opacity:2.000000e-02"/>
	</linearGradient>
	<path class="st26" d="M1658.5,91.3c9-0.8,16.9,5.3,17.7,13.7c0.8,8.5-5.8,15.8-14.9,16.8c-9,0.8-16.9-5.3-17.7-13.7
		C1642.9,99.8,1649.6,92.3,1658.5,91.3z"/>
	
		<ellipse transform="matrix(0.1714 -0.9852 0.9852 0.1714 1271.4004 1722.7045)" class="st7" cx="1659.9" cy="105.5" rx="14.1" ry="14.1"/>
	
		<linearGradient id="SVGID_16_" gradientUnits="userSpaceOnUse" x1="574.0291" y1="1169.9006" x2="606.7311" y2="1169.9006" gradientTransform="matrix(0.9956 -9.413242e-02 9.413242e-02 0.9956 627.2333 -803.3254)">
		<stop  offset="0" style="stop-color:#000000;stop-opacity:9.000000e-02"/>
		<stop  offset="0.55" style="stop-color:#000000;stop-opacity:7.000000e-02"/>
		<stop  offset="1" style="stop-color:#000000;stop-opacity:2.000000e-02"/>
	</linearGradient>
	<path class="st27" d="M1323.7,290.6c9-0.8,16.9,5.3,17.7,13.7c0.8,8.5-5.8,15.8-14.9,16.8c-9,0.8-16.9-5.3-17.7-13.7
		C1308,298.9,1314.7,291.3,1323.7,290.6z"/>
	
		<ellipse transform="matrix(0.1714 -0.9852 0.9852 0.1714 797.6025 1557.8118)" class="st28" cx="1324.9" cy="304.7" rx="14.1" ry="14.1"/>
	
		<linearGradient id="SVGID_17_" gradientUnits="userSpaceOnUse" x1="747.3472" y1="1169.8022" x2="780.0491" y2="1169.8022" gradientTransform="matrix(0.9956 -9.413242e-02 9.413242e-02 0.9956 627.2312 -803.3266)">
		<stop  offset="0" style="stop-color:#000000;stop-opacity:9.000000e-02"/>
		<stop  offset="0.55" style="stop-color:#000000;stop-opacity:7.000000e-02"/>
		<stop  offset="1" style="stop-color:#000000;stop-opacity:2.000000e-02"/>
	</linearGradient>
	<path class="st29" d="M1496.2,274.2c9-0.8,16.9,5.3,17.7,13.7c0.8,8.5-5.8,15.8-14.9,16.8c-9,0.8-16.9-5.3-17.7-13.7
		C1480.5,282.5,1487.2,275.1,1496.2,274.2z"/>
	
		<ellipse transform="matrix(0.1714 -0.9852 0.9852 0.1714 956.7266 1714.1864)" class="st28" cx="1497.5" cy="288.3" rx="14.1" ry="14.1"/>
	
		<linearGradient id="SVGID_18_" gradientUnits="userSpaceOnUse" x1="926.1035" y1="1169.8232" x2="958.8052" y2="1169.8232" gradientTransform="matrix(0.9956 -9.413242e-02 9.413242e-02 0.9956 627.2346 -803.3297)">
		<stop  offset="0" style="stop-color:#000000;stop-opacity:9.000000e-02"/>
		<stop  offset="0.55" style="stop-color:#000000;stop-opacity:7.000000e-02"/>
		<stop  offset="1" style="stop-color:#000000;stop-opacity:2.000000e-02"/>
	</linearGradient>
	<path class="st30" d="M1674.3,257.4c9-0.8,16.9,5.3,17.7,13.7c0.8,8.5-5.8,15.8-14.9,16.8c-9,0.8-16.9-5.3-17.7-13.7
		C1658.5,265.6,1665.2,258.3,1674.3,257.4z"/>
	
		<ellipse transform="matrix(0.1714 -0.9852 0.9852 0.1714 1120.7903 1875.6354)" class="st28" cx="1675.5" cy="271.5" rx="14.1" ry="14.1"/>
</g>
</svg>
