<svg xmlns="http://www.w3.org/2000/svg" viewBox="0 0 1131 812.21"><defs><style>.cls-1,.cls-3{fill:#e34c25;}.cls-1{opacity:0.3;}.cls-1,.cls-6{isolation:isolate;}.cls-2{fill:none;stroke:#3f3d56;stroke-miterlimit:10;}.cls-4{fill:#f2f2f2;}.cls-5{fill:#47465a;}.cls-6{opacity:0.1;}.cls-7{fill:#7a799c;}.cls-8{fill:#9493b6;}.cls-9{fill:#ff6584;}.cls-10{fill:#fbbebe;}</style></defs><title>Services</title><g id="Layer_2" data-name="Layer 2"><g id="e87ddc62-7528-42a5-8b37-f74ed0351019"><rect class="cls-1" x="360.87" y="51.27" width="80.8" height="30.09"/><rect class="cls-1" x="226.57" width="80.8" height="30.09"/><rect class="cls-1" x="221" y="93.06" width="80.8" height="30.09"/><rect class="cls-1" x="479.56" y="127.61" width="80.8" height="30.09"/><rect class="cls-1" x="505.2" y="251.32" width="80.8" height="30.09"/><rect class="cls-1" x="383.16" y="248.53" width="80.8" height="30.09"/><polyline class="cls-2" points="301.8 108.11 360.87 65.62 307.37 14.86"/><line class="cls-2" x1="519.97" y1="127.61" x2="441.67" y2="65.62"/><polyline class="cls-2" points="423.56 248.53 519.97 157.7 545.6 251.3"/><rect class="cls-1" x="905.87" y="82.27" width="80.8" height="30.09"/><rect class="cls-1" x="771.57" y="31" width="80.8" height="30.09"/><rect class="cls-1" x="766" y="124.06" width="80.8" height="30.09"/><rect class="cls-1" x="1024.56" y="158.61" width="80.8" height="30.09"/><rect class="cls-1" x="1050.2" y="282.32" width="80.8" height="30.09"/><rect class="cls-1" x="928.16" y="279.53" width="80.8" height="30.09"/><polyline class="cls-2" points="846.8 139.11 905.87 96.62 852.37 45.86"/><line class="cls-2" x1="1064.97" y1="158.61" x2="986.67" y2="96.62"/><polyline class="cls-2" points="968.56 279.53 1064.97 188.7 1090.6 282.3"/><line class="cls-2" x1="674.37" y1="139.11" x2="766" y2="139.11"/><rect class="cls-3" x="620.5" y="123.71" width="95" height="30"/><line class="cls-2" x1="560.37" y1="138.71" x2="620.38" y2="138.71"/><line class="cls-2" x1="771.57" y1="45.86" x2="715.96" y2="138.71"/><ellipse class="cls-4" cx="440" cy="714.21" rx="440" ry="98"/><polygon class="cls-5" points="249.4 397.21 255.04 399.57 292.19 600.39 289.23 604.99 288.21 606.58 278.92 606.58 236.02 391.61 249.4 397.21"/><polygon class="cls-6" points="255.04 399.57 292.19 600.39 289.23 604.99 249.4 397.21 255.04 399.57"/><polygon class="cls-5" points="229.82 399.57 243.08 402.55 249.4 403.96 188.69 680.89 185.15 688.86 182.47 687.99 171.44 684.43 229.82 399.57"/><polygon class="cls-6" points="243.08 402.55 249.4 403.96 188.69 680.89 185.15 688.86 182.47 687.99 243.08 402.55"/><polygon class="cls-5" points="709.98 393.42 715.94 394.26 722.13 667.18 719.04 672.93 718.25 672.75 707.1 670.28 697.36 391.61 709.98 393.42"/><polygon class="cls-6" points="715.94 394.26 722.13 667.18 719.04 672.93 718.25 672.75 709.98 393.42 715.94 394.26"/><polygon class="cls-5" points="701.79 396.48 710.34 399.08 711.96 399.57 655.78 763.61 652.25 771.13 650.96 770.91 639.42 768.92 701.79 396.48"/><polygon class="cls-6" points="710.34 399.08 711.96 399.57 655.78 763.61 652.25 771.13 650.96 770.91 710.34 399.08"/><path class="cls-7" d="M151.09,354V394.7a13.92,13.92,0,0,0,12.31,13.83l176.31,20.65a13.9,13.9,0,0,0,12.59-5.25l42.95-54.88Z"/><path class="cls-5" d="M250.61,377.9v17.23h0a4.43,4.43,0,0,1-4.44,4.44h-3.06a4.44,4.44,0,0,1-4.44-4.44V377.9h11.94Z"/><path class="cls-7" d="M467.8,389v40.68a13.93,13.93,0,0,0,12.3,13.84l176.32,20.65A14,14,0,0,0,669,458.88L712,404Z"/><path class="cls-5" d="M567.32,412.84v17.24h0a4.44,4.44,0,0,1-4.44,4.44h-3.07a4.43,4.43,0,0,1-4.43-4.44V412.84h11.94Z"/><path class="cls-5" d="M706.34,416.23l54.26-55.67a8.93,8.93,0,0,0-5.46-15.1L289.2,298a108.66,108.66,0,0,0-59.8,11l-93.82,47.18a7.71,7.71,0,0,0,2.58,14.55l524.46,61.09A52.68,52.68,0,0,0,706.34,416.23Z"/><path class="cls-5" d="M81.64,369.94l6.2,12.82s14.15,18.58,9.22-.2-11-23.24-11-23.24l-5.61,3.1Z"/><path class="cls-5" d="M219.65,493.35c35.39-6.2,67.68-18.14,84-3.1s62.81,46.44,62.81,46.44a6.42,6.42,0,0,1,1.8,3.45c.7,4.4-3.39,12.26-35,19.11C286.44,569.43,190,584.47,182.49,583.58a97.31,97.31,0,0,1-19.07-5c-7-2.57-13.24-5.94-14.54-9.62-2.66-7.52-8.41-34.5-8.41-34.5S184.26,499.54,219.65,493.35Z"/><path class="cls-5" d="M85.62,391.61c8.85,10.62,26.54,126.06,31.85,146.85s54,45.12,54,45.12V576.5c-26.9-3.89-10.76-35.24-3.23-47.63a25.14,25.14,0,0,0,3.67-11.7c5.17-92.13-34.5-114.5-34.5-114.5-73-29.19-51.31-43.35-51.31-43.35C71,364.19,76.78,381,85.62,391.61Z"/><path class="cls-6" d="M168.08,575.82c4.16,4.18,59.09-2,87.84-4.18,24.2-1.86,91.62-24.4,112.38-31.5.7,4.4-3.39,12.26-35,19.11C286.44,569.43,190,584.47,182.49,583.58a97.31,97.31,0,0,1-19.07-5C164.84,575.91,166.48,574.21,168.08,575.82Z"/><path class="cls-5" d="M408.08,762.72s-36.71-169-42.46-189.31-32.29-14.16-32.29-14.16l15.92-8c17.25-.88,24.77,19.46,24.77,19.46l42,192Z"/><polygon class="cls-5" points="308.12 675.14 290.86 557.93 298.38 557.93 315.19 675.14 308.12 675.14"/><path class="cls-5" d="M147.11,789.71s11.5-165.43,14.59-175.61-3.09-21.23-3.09-21.23L127.2,563.23,81.64,736.63l-7.07-3.1s36.71-150.39,42-165.43,11.89-13.49,11.89-13.49,25.7,21.45,33.67,29,8,23,8,23L154.18,789.71Z"/><polygon class="cls-5" points="177.63 579.16 154.63 582.25 163.47 590.66 203.28 579.16 177.63 579.16"/><path class="cls-7" d="M548.49,246.18,425.55,235.84h-.24a9.53,9.53,0,0,0-10.07,8.94l-5.61,94.65,141.1,13.71,6.46-96.83A9.53,9.53,0,0,0,548.49,246.18Z"/><polygon class="cls-7" points="409.63 338.33 549.4 350.92 549.4 356.67 508.27 383.21 502.96 382.63 362.3 367.28 409.63 338.33"/><polygon class="cls-6" points="549.4 351.52 549.4 356.67 508.27 383.21 502.96 382.63 549.4 351.52"/><polygon class="cls-8" points="423.34 246.08 418.92 330.13 542.77 341.63 547.64 255.37 423.34 246.08"/><polygon class="cls-6" points="428.65 361.53 413.17 371.26 458.73 375.69 473.77 365.51 428.65 361.53"/><polygon class="cls-8" points="416.26 341.63 394.59 355.78 516.23 367.28 535.25 353.13 416.26 341.63"/><rect class="cls-9" x="229.6" y="222.42" width="89.79" height="89.79"/><rect class="cls-6" x="229.6" y="222.42" width="89.79" height="89.79"/><path class="cls-10" d="M258.39,256.58c5.28,24.28-31.67,34.84-31.67,34.84l16.36,13.19s58.06,6.34,45.39,0,0-40.64,0-40.64S253.11,232.31,258.39,256.58Z"/><path class="cls-6" d="M258.39,256.58c5.28,24.28-31.67,34.84-31.67,34.84l16.36,13.19s58.06,6.34,45.39,0,0-40.64,0-40.64S253.11,232.31,258.39,256.58Z"/><path class="cls-10" d="M353.11,603c2.36,5.51-28.22,59.94-40.36,74.72s4.75,26.91,13.72,30.08,15.31,25.86,17.95,30.61,20.58,8.45,34.3,9,9.5-11.08-6.33-17.41-11.61-18-19.53-36.42,39.58-85.5,39.58-85.5S350.75,597.53,353.11,603Z"/><path class="cls-8" d="M275.28,511s22.16,14.77,42.22,17.94S374,545.28,374,545.28s-28,47.5-29.55,59.11,39.58,15.84,44.86,14.78,52.78-89.72,27.44-113.47-123.5-30.08-123.5-30.08Z"/><path class="cls-10" d="M322.25,458.73l-.53,17.94s-14.78,47,0,44.86,16.36-60.69,16.36-60.69Z"/><path class="cls-3" d="M299,441.84l22.16,28c3.7-2.64,21.11,2.64,21.11,2.64l-9.5-58.06s-1.58-72.83-6.86-93.94-32.72-13.2-32.72-13.2Z"/><path class="cls-6" d="M299,441.84l22.16,28c3.7-2.64,21.11,2.64,21.11,2.64l-9.5-58.06s-1.58-72.83-6.86-93.94-32.72-13.2-32.72-13.2Z"/><path class="cls-10" d="M275.28,649.78c-11.09,3.7-38,41.17-50.67,61.75s-1.58,20.59-2.11,26.39-11.61,5.28-23.75,0-11.09-27.44-4.75-40.11,0-6.86,5.28-28.5,15.83-14.78,26.91-14.25,29.53-35.73,29.53-35.73S286.36,646.09,275.28,649.78Z"/><path class="cls-8" d="M300.61,474.57l-7.39,40.63s23.75,28,49.08,44.86,11.09,62.28-12.13,68.61-44.87,31.14-52.25,30.61-28.51-24.8-26.39-33.77,41.69-35.89,41.69-35.89-73.89-35.37-98.69-53.84S207.72,454,207.72,454Z"/><path class="cls-10" d="M286.1,202.49a40.64,40.64,0,0,1,0,81.28c-22.45,0-45.44-18.56-45.44-41S263.65,202.49,286.1,202.49Z"/><path class="cls-3" d="M290.05,298.81s9,11.08,28.5,41.69-4.75,72.84-10,84.45,0,37.47,0,37.47c-15.31,7.92-6.34,12.67-4.23,19s-8.44,2.64-14.25,0-40.64-9-40.64-9-52.77-8.45-47-14.25,16.36-66.5,16.36-66.5-19-78.64-15.83-87.09,5.81-7.91,10.56-12.14,25.86-11.08,25.86-9,36.41,17.95,36.41,17.95C283.19,304.61,290.05,298.81,290.05,298.81Z"/><path class="cls-10" d="M251.53,462.42l43.8,18.47s31.14,12.67,51.72,4.23-16.88-17.95-29.29-19.64-53.57-20-53.57-20Z"/><path class="cls-6" d="M230.49,326.81c-7.39,11.61-3.13,82.3,1.1,88.64s33.25,24.28,45.39,30.61-13.73,23.75-13.73,23.75-43.8-19.53-62.8-31.67-4.23-93.94,0-119.8,19.42-18.51,19.42-18.51S237.88,315.2,230.49,326.81Z"/><path class="cls-3" d="M237.28,331.53c-7.39,11.61-14.78,77.58-10.56,83.92s33.25,24.28,45.39,30.61-13.72,23.75-13.72,23.75-43.81-19.53-62.81-31.67-4.22-93.94,0-119.8,25.33-24.81,25.33-24.81S244.66,319.92,237.28,331.53Z"/><path class="cls-9" d="M255.76,181.49c-11.72,4.66-14.58,14-19,24.68-4.35,10.55-16.27,16.33-21.08,26.68-5.26,11.31-.66,24.69-2.46,37-1.33,9.2-6.24,17.58-12.44,24.51S187.09,307,179.66,312.58a85.09,85.09,0,0,0,20.76,1.74,12.5,12.5,0,0,1-6.44,4,90.72,90.72,0,0,0,44.36-27.25c6.83-7.68,12.55-17.35,11.76-27.61-.84-11-9-22.08-4.58-32.2,1.41-3.22,5-6.08,8.22-4.63a14.82,14.82,0,0,0,1.55.76c2.86.94,4.87-2.67,6.28-5.32a21.51,21.51,0,0,1,17.93-11,24.5,24.5,0,0,1,19.32,8.86c6.11,7.33,7.71,17.66,6.11,27.07s-6.07,18.08-11,26.24c-1.93,3.16-4,6.31-5.12,9.83-1.65,5-1.46,10.4-.89,15.62,1.06,9.89,3.43,19.8,8.54,28.33s13.23,15.56,22.9,17.84a19.06,19.06,0,0,1-5.82-16.9,18.63,18.63,0,0,0,21.71,7.41c-3.56-1.12-6.07-4.45-7.19-8s-1.09-7.37-1-11.1l.34-24.44c.17-12.43.49-25.46,6.57-36.3,2.18-3.89,5.06-7.39,6.83-11.48,4.57-10.56.72-23.38-7-31.88-5.95-6.53-14.18-11.4-17.57-19.55-1.23-3-1.75-6.21-3.34-9-3.26-5.67-10.21-8-16.69-8.93C282.3,172.84,268.54,176.4,255.76,181.49Z"/></g></g></svg>