<svg xmlns="http://www.w3.org/2000/svg" viewBox="0 0 364.64 360"><defs><style>.cls-1{fill:#f2f2f2;}.cls-2{fill:#cdd6df;}.cls-3{fill:#426175;}.cls-4{fill:#2c4456;}.cls-5{fill:#46d1c0;}.cls-6{fill:#fd715c;}.cls-7{fill:#33bca5;}</style></defs><title>web</title><g id="Layer_2" data-name="Layer 2"><g id="Layer_1-2" data-name="Layer 1"><path class="cls-1" d="M313.33,325.57H12.24A12.24,12.24,0,0,1,0,313.33V12.24A12.24,12.24,0,0,1,12.24,0H313.33a12.24,12.24,0,0,1,12.24,12.24V313.33A12.24,12.24,0,0,1,313.33,325.57Z"/><path class="cls-2" d="M313.33,0h-39.4a12.25,12.25,0,0,1,12.25,12.24V313.33a12.25,12.25,0,0,1-12.25,12.24h39.4a12.24,12.24,0,0,0,12.24-12.24V12.24A12.24,12.24,0,0,0,313.33,0Z"/><path class="cls-3" d="M313.33,0H12.24A12.24,12.24,0,0,0,0,12.24V49.3H325.57V12.24A12.24,12.24,0,0,0,313.33,0Z"/><path class="cls-4" d="M325.57,49.3V12.24A12.24,12.24,0,0,0,313.33,0h-39.4a12.25,12.25,0,0,1,12.25,12.24V49.3Z"/><path class="cls-1" d="M148.05,30.15H28.4a5.5,5.5,0,0,1,0-11H148.05a5.5,5.5,0,1,1,0,11Z"/><circle class="cls-5" cx="240.63" cy="24.65" r="5.86"/><circle class="cls-5" cx="268.72" cy="24.65" r="5.86"/><circle class="cls-5" cx="296.82" cy="24.65" r="5.86"/><path class="cls-6" d="M357.05,270.07H352a7.55,7.55,0,0,1-7.24-5.33,61.93,61.93,0,0,0-4.84-11.55,7.56,7.56,0,0,1,1.3-9l3.63-3.62a7.59,7.59,0,0,0,0-10.73l-6.12-6.12a7.59,7.59,0,0,0-10.73,0l-3.62,3.63a7.56,7.56,0,0,1-9,1.3,60.61,60.61,0,0,0-11.55-4.84,7.55,7.55,0,0,1-5.33-7.24v-5a7.59,7.59,0,0,0-7.59-7.59H282.3a7.59,7.59,0,0,0-7.59,7.59v4.72a7.55,7.55,0,0,1-5.46,7.28,61.15,61.15,0,0,0-11.91,4.79,7.53,7.53,0,0,1-8.87-1.36l-3.23-3.23a7.59,7.59,0,0,0-10.73,0l-6.12,6.12a7.59,7.59,0,0,0,0,10.73l2.9,2.9a7.56,7.56,0,0,1,1.28,9,60.47,60.47,0,0,0-5.21,12.19,7.59,7.59,0,0,1-7.28,5.34h-3.89a7.59,7.59,0,0,0-7.59,7.59v8.64a7.59,7.59,0,0,0,7.59,7.59h3.58a7.55,7.55,0,0,1,7.29,5.44,61.23,61.23,0,0,0,5.16,12.59,7.54,7.54,0,0,1-1.33,8.94l-2.49,2.5a7.57,7.57,0,0,0,0,10.73l6.11,6.11a7.57,7.57,0,0,0,10.73,0l2.5-2.49a7.54,7.54,0,0,1,8.94-1.33,61.23,61.23,0,0,0,12.59,5.16,7.55,7.55,0,0,1,5.44,7.29v3.58A7.59,7.59,0,0,0,282.3,360h8.64a7.59,7.59,0,0,0,7.59-7.59v-3.89a7.59,7.59,0,0,1,5.34-7.28A60.47,60.47,0,0,0,316.06,336a7.58,7.58,0,0,1,9,1.27l2.9,2.9a7.57,7.57,0,0,0,10.73,0l6.12-6.11a7.59,7.59,0,0,0,0-10.73l-3.23-3.23a7.53,7.53,0,0,1-1.36-8.87,61.78,61.78,0,0,0,4.79-11.91,7.55,7.55,0,0,1,7.28-5.46h4.72a7.59,7.59,0,0,0,7.59-7.59v-8.64A7.59,7.59,0,0,0,357.05,270.07ZM286.62,315.5A33.53,33.53,0,1,1,320.14,282,33.53,33.53,0,0,1,286.62,315.5Z"/><path class="cls-7" d="M69.87,175.06l37-24.17a3.65,3.65,0,0,1,2.1-.56,7.4,7.4,0,0,1,6.75,7,4.91,4.91,0,0,1-2.11,4.08L84.06,180.82l29.51,19.4a4.56,4.56,0,0,1,2.11,4.07,7.26,7.26,0,0,1-6.75,6.89,3.65,3.65,0,0,1-2.1-.56l-37-24.18a7,7,0,0,1-3.1-5.62A7.3,7.3,0,0,1,69.87,175.06Z"/><path class="cls-7" d="M193.82,116.88a4.06,4.06,0,0,1-.57,2.25L141.68,222a5.09,5.09,0,0,1-4.64,2.67,5.44,5.44,0,0,1-5.48-5.2,5.67,5.67,0,0,1,.42-2.11L183.7,114.07a4.27,4.27,0,0,1,4.22-2.53C190.73,111.54,193.82,113.65,193.82,116.88Z"/><path class="cls-7" d="M255.37,186.44l-37,24.18a3.22,3.22,0,0,1-2,.56,7.16,7.16,0,0,1-6.74-6.89,4.78,4.78,0,0,1,2-4.07l29.65-19.4-29.65-19.39a5.18,5.18,0,0,1-2-4.08,7.29,7.29,0,0,1,6.74-7,3.22,3.22,0,0,1,2,.56l37,24.17a7.29,7.29,0,0,1,3.09,5.76A6.66,6.66,0,0,1,255.37,186.44Z"/></g></g></svg>